<svg width="43" height="32" viewBox="0 0 43 32" fill="none" xmlns="http://www.w3.org/2000/svg">
<path fill-rule="evenodd" clip-rule="evenodd" d="M28.6723 2.99533L22.8778 12.5066H0.410156L9.92033 28.2515C10.4764 29.172 11.26 29.9331 12.1954 30.4612C13.1309 30.9894 14.1865 31.2668 15.2602 31.2665H20.6982C21.7796 31.2664 22.8424 30.9846 23.7824 30.4488C24.7225 29.9131 25.5074 29.1417 26.0603 28.2104L35.3815 12.5066L43.0009 6.80606e-10H33.9989C32.9293 -1.58107e-05 31.8776 0.275459 30.9449 0.799984C30.0121 1.32451 29.2296 2.08048 28.6723 2.99533Z" fill="white"/>
<path fill-rule="evenodd" clip-rule="evenodd" d="M28.6723 28.2712L22.8778 18.7599H0.410156L9.92033 3.01498C10.4764 2.09454 11.26 1.33343 12.1954 0.805264C13.1309 0.277094 14.1865 -0.000267029 15.2602 -1.90735e-06H20.6982C21.7796 0.000133514 22.8424 0.281889 23.7824 0.81764C24.7225 1.35339 25.5074 2.12475 26.0603 3.05608L35.3815 18.7599L43.0009 31.2665H33.9989C32.9293 31.2665 31.8776 30.991 30.9449 30.4665C30.0121 29.942 29.2296 29.186 28.6723 28.2712Z" fill="white"/>
</svg>
