<svg width="34" height="15" viewBox="0 0 34 15" fill="none" xmlns="http://www.w3.org/2000/svg"><path fill-rule="evenodd" clip-rule="evenodd" d="M9.758 5.595H5a3 3 0 0 0-3 3v2.189h3.574a3.231 3.231 0 0 0 .249 2H2a2 2 0 0 1-2-2v-2.19a5 5 0 0 1 5-5h4.19l.47-.29 1.745-1.08L13.917.67l.8-.495A1.174 1.174 0 0 1 15.332 0c.553 0 .797.696.365 1.04l-.297.238-.068.054-.328.263-.32.255L12.5 3.595H32a2 2 0 0 1 2 2v5.189a2 2 0 0 1-2 2h-2.904a3.205 3.205 0 0 0 .25-2H32v-5.19H9.758Zm13.275 5.189H11.886a3.23 3.23 0 0 1-.25 2h11.646a3.203 3.203 0 0 1-.249-2Z" fill="#41456B"/><path d="m17 4 1-1m-5 4h2" stroke="#41456B" stroke-width="2" stroke-linecap="round" stroke-linejoin="round"/><circle cx="8.73" cy="11.405" r="2.216" stroke="#41456B" stroke-width="2"/><circle cx="26.189" cy="11.405" r="2.216" stroke="#41456B" stroke-width="2"/></svg>