<svg width="34" height="15" viewBox="0 0 34 15" fill="none" xmlns="http://www.w3.org/2000/svg"><path fill-rule="evenodd" clip-rule="evenodd" d="M32 10.784V5.4l-2.629-.267a2.223 2.223 0 0 1-1.444-.744A7.036 7.036 0 0 0 22.642 2H16.74c-.62 0-1.23.167-1.763.484l-4.295 2.55a4 4 0 0 1-2.042.56H5a3 3 0 0 0-3 3v2.19h3.574a3.231 3.231 0 0 0 .249 2H2a2 2 0 0 1-2-2v-2.19a5 5 0 0 1 5-5h3.64a2 2 0 0 0 1.021-.28l4.295-2.55A5.453 5.453 0 0 1 16.74 0h5.902a9.037 9.037 0 0 1 6.787 3.07.223.223 0 0 0 .145.074l2.628.268A2 2 0 0 1 34 5.402v5.382a2 2 0 0 1-2 2h-2.904a3.205 3.205 0 0 0 .25-2H32Zm-8.967 0H11.886a3.23 3.23 0 0 1-.25 2h11.646a3.203 3.203 0 0 1-.249-2Z" fill="#41456B"/><path d="M14.784 5.433h1.838" stroke="#41456B" stroke-width="2" stroke-linecap="round" stroke-linejoin="round"/><circle cx="8.73" cy="11.405" r="2.216" stroke="#41456B" stroke-width="2"/><circle cx="26.189" cy="11.405" r="2.216" stroke="#41456B" stroke-width="2"/></svg>