<svg width="34" height="16" viewBox="0 0 34 16" fill="none" xmlns="http://www.w3.org/2000/svg"><path fill-rule="evenodd" clip-rule="evenodd" d="M32 5.44A13.084 13.084 0 0 0 23.158 2h-6.53a4.17 4.17 0 0 0-2.804 1.084l-2.717 2.47a4 4 0 0 1-2.691 1.04H7.351a5.351 5.351 0 0 0-5.349 5.19h3.572a3.231 3.231 0 0 0 .249 2H1.838A1.838 1.838 0 0 1 0 11.946a7.351 7.351 0 0 1 7.351-7.351h1.065a2 2 0 0 0 1.345-.52l2.717-2.47A6.17 6.17 0 0 1 16.628 0h6.53c4 0 7.837 1.59 10.665 4.418a.604.604 0 0 1 .177.427v6.939a2 2 0 0 1-2 2h-2.904a3.205 3.205 0 0 0 .25-2H32V5.44Zm-8.967 6.344H11.886a3.23 3.23 0 0 1-.25 2h11.646a3.203 3.203 0 0 1-.249-2Z" fill="#41456B"/><path d="M13.784 6.433h1.838" stroke="#41456B" stroke-width="2" stroke-linecap="round" stroke-linejoin="round"/><circle cx="8.73" cy="12.405" r="2.216" stroke="#41456B" stroke-width="2"/><circle cx="26.189" cy="12.405" r="2.216" stroke="#41456B" stroke-width="2"/></svg>