<svg width="34" height="15" viewBox="0 0 34 15" fill="none" xmlns="http://www.w3.org/2000/svg"><path fill-rule="evenodd" clip-rule="evenodd" d="M32 10.784V5.35l-1.69-.22a2.223 2.223 0 0 1-1.38-.737A7.044 7.044 0 0 0 23.638 2H16.87c-.706 0-1.399.19-2.006.55l-4.183 2.484a4 4 0 0 1-2.042.56H5a3 3 0 0 0-3 3v2.19h3.574a3.231 3.231 0 0 0 .249 2H2a2 2 0 0 1-2-2v-2.19a5 5 0 0 1 5-5h3.64a2 2 0 0 0 1.021-.28L13.844.831A5.928 5.928 0 0 1 16.871 0h6.768c2.6 0 5.075 1.12 6.792 3.072.036.04.085.067.139.074l1.69.221A2 2 0 0 1 34 5.35v5.434a2 2 0 0 1-2 2h-2.904a3.205 3.205 0 0 0 .25-2H32Zm-8.967 0H11.886a3.23 3.23 0 0 1-.25 2h11.646a3.203 3.203 0 0 1-.249-2Z" fill="#41456B"/><path d="M14.784 5.432h1.838" stroke="#41456B" stroke-width="2" stroke-linecap="round" stroke-linejoin="round"/><circle cx="8.73" cy="11.405" r="2.216" stroke="#41456B" stroke-width="2"/><circle cx="26.189" cy="11.405" r="2.216" stroke="#41456B" stroke-width="2"/></svg>