<svg width="34" height="16" viewBox="0 0 34 16" fill="none" xmlns="http://www.w3.org/2000/svg"><path fill-rule="evenodd" clip-rule="evenodd" d="M18.216 6.595V2h-5.768L9.973 5.093A4 4 0 0 1 6.85 6.595H4a2 2 0 0 0-2 2v3.189h3.574a3.231 3.231 0 0 0 .249 2H2a2 2 0 0 1-2-2v-3.19a4 4 0 0 1 4-4h2.85a2 2 0 0 0 1.561-.75L10.886.751A2 2 0 0 1 12.448 0h5.768a2 2 0 0 1 2 2v2.595H32a2 2 0 0 1 2 2v5.189a2 2 0 0 1-2 2h-2.904a3.205 3.205 0 0 0 .25-2H32v-5.19H18.216Zm4.817 5.189H11.886a3.23 3.23 0 0 1-.25 2h11.646a3.203 3.203 0 0 1-.249-2Z" fill="#41456B"/><path d="M11.946 6.432h1.838" stroke="#41456B" stroke-width="2" stroke-linecap="round" stroke-linejoin="round"/><circle cx="8.73" cy="12.405" r="2.216" stroke="#41456B" stroke-width="2"/><circle cx="26.189" cy="12.405" r="2.216" stroke="#41456B" stroke-width="2"/></svg>