<svg width="34" height="16" viewBox="0 0 34 16" fill="none" xmlns="http://www.w3.org/2000/svg"><path fill-rule="evenodd" clip-rule="evenodd" d="M32 11.784v-7.19A2.595 2.595 0 0 0 29.405 2H15.134c-.49 0-.958.203-1.293.56l-2.6 2.772a4 4 0 0 1-2.918 1.263h-.972a5.351 5.351 0 0 0-5.349 5.189h3.572a3.231 3.231 0 0 0 .249 2H1.838A1.838 1.838 0 0 1 0 11.946a7.351 7.351 0 0 1 7.351-7.351h.972a2 2 0 0 0 1.459-.632l2.6-2.772A3.773 3.773 0 0 1 15.134 0h14.271A4.595 4.595 0 0 1 34 4.595v7.189a2 2 0 0 1-2 2h-2.904a3.205 3.205 0 0 0 .25-2H32Zm-8.967 0H11.886a3.23 3.23 0 0 1-.25 2h11.646a3.203 3.203 0 0 1-.249-2Z" fill="#41456B"/><path d="M13.784 6.433h1.838" stroke="#41456B" stroke-width="2" stroke-linecap="round" stroke-linejoin="round"/><circle cx="8.73" cy="12.405" r="2.216" stroke="#41456B" stroke-width="2"/><circle cx="26.189" cy="12.405" r="2.216" stroke="#41456B" stroke-width="2"/></svg>