<svg width="70" height="70" viewBox="0 0 70 70" fill="none" xmlns="http://www.w3.org/2000/svg"><path fill-rule="evenodd" clip-rule="evenodd" d="M8.174 44H7a3 3 0 0 1-3-3v-4.5h2a1 1 0 1 0 0-2H4v-.486a3 3 0 0 1 .504-1.664l6.676-10.014A3 3 0 0 1 13.676 21H30v8h-4a1 1 0 1 0 0 2h26a1 1 0 0 0 .395-.081 7 7 0 0 0 1.65.414l9.325 1.16a3 3 0 0 1 2.47 2.007H63.5a1 1 0 1 0 0 2H66V41a3 3 0 0 1-3 3h-1.174a6.503 6.503 0 0 0-12.652 0H20.826a6.503 6.503 0 0 0-12.652 0ZM32 29h17.64l-6.617-7.053A3 3 0 0 0 40.835 21H32v8Zm31 17h-1.019a6.5 6.5 0 0 1-12.962 0H20.98a6.5 6.5 0 0 1-12.96 0H7a5 5 0 0 1-5-5v-6.986a5 5 0 0 1 .84-2.774l6.676-10.013A5 5 0 0 1 13.676 19h27.16a5 5 0 0 1 3.645 1.579l6.783 7.229a5 5 0 0 0 3.029 1.54l9.324 1.16A5 5 0 0 1 68 35.47V41a5 5 0 0 1-5 5Zm-48.5 4a4.5 4.5 0 1 0 0-9 4.5 4.5 0 0 0 0 9Zm41 0a4.5 4.5 0 1 0 0-9 4.5 4.5 0 0 0 0 9ZM33 34.5a1 1 0 1 0 0 2h3a1 1 0 1 0 0-2h-3Z" fill="#41456B"/></svg>