<svg width="70" height="70" viewBox="0 0 70 70" fill="none" xmlns="http://www.w3.org/2000/svg"><path fill-rule="evenodd" clip-rule="evenodd" d="M26.239 13.27a1.982 1.982 0 0 0-1.828-.089L8.173 20.558A2 2 0 0 0 7 22.38v32.45a2 2 0 0 0 2.737 1.86l16.525-6.55a2.2 2.2 0 0 0 .24.114l16.238 6.435c.606.24 1.235.164 1.737-.127.503.29 1.132.367 1.737.127l16.239-6.435a2 2 0 0 0 1.263-1.86v-33.39a2 2 0 0 0-2.827-1.822L44.65 20.558a1.77 1.77 0 0 0-.173.09 1.98 1.98 0 0 0-.172-.09l-16.239-7.377a1.982 1.982 0 0 0-1.827.09Zm1 21.074.299.12a1 1 0 1 0 .746-1.856l-1.045-.42V15.002l16.238 7.377v16.335l-1.514-.608a1 1 0 0 0-.746 1.855l2.26.909v13.959L27.24 48.394v-14.05Zm18.238-11.965v16l.368-.118a1 1 0 0 1 .614 1.903l-.982.317V54.83l16.239-6.435V15.002L45.477 22.38ZM25.24 31.697V15.002L9 22.38l-.414-.91.414.91v32.45l16.238-6.435v-14.59l-.698.233a1 1 0 0 1-.633-1.897l1.331-.444Zm-3.514 3.281a1 1 0 1 0-.634-1.897l-1.407.47a1 1 0 0 0-.212.1A3.5 3.5 0 1 0 20 35.5a.997.997 0 0 0 .317-.052l1.408-.47Zm11.118-.537a1 1 0 0 0-.746 1.855l4.56 1.833a1 1 0 1 0 .746-1.856l-4.56-1.832Zm20.465 3.51a1 1 0 1 0-.615-1.903l-2.283.738a1 1 0 0 0 .615 1.903l2.283-.737ZM16.5 37a1.5 1.5 0 1 0 0-3 1.5 1.5 0 0 0 0 3ZM57 29.5c0-.009 0-.008-.002 0-.005.032-.03.168-.138.433a8.48 8.48 0 0 1-.575 1.109c-.241.403-.513.81-.785 1.195a19.186 19.186 0 0 1-.785-1.195 8.48 8.48 0 0 1-.575-1.11 2.087 2.087 0 0 1-.138-.431C54 29.49 54 29.49 54 29.5a1.5 1.5 0 0 1 3 0Zm2 0c0 1.364-1.742 3.79-2.768 5.1a.922.922 0 0 1-1.464 0C53.742 33.29 52 30.864 52 29.5a3.5 3.5 0 1 1 7 0Z" fill="#41456B"/></svg>