<svg width="17" height="17" viewBox="0 0 17 17" fill="none" xmlns="http://www.w3.org/2000/svg"><path d="M8.858 4.696a4.137 4.137 0 0 0-4.13 4.129 4.116 4.116 0 0 0 4.13 4.129 4.137 4.137 0 0 0 4.129-4.13c0-2.257-1.871-4.128-4.13-4.128Zm0 6.774a2.657 2.657 0 0 1-2.646-2.645 2.657 2.657 0 0 1 2.646-2.646 2.657 2.657 0 0 1 2.645 2.646 2.657 2.657 0 0 1-2.645 2.645Zm4.292-5.936a.935.935 0 1 0 0-1.87.935.935 0 0 0 0 1.87Z" fill="#fff"/><path d="M15.567 2.18C14.728 1.309 13.535.857 12.18.857H5.535C2.728.857.857 2.728.857 5.535v6.613c0 1.387.452 2.58 1.355 3.451.871.839 2.033 1.258 3.355 1.258h6.58c1.388 0 2.55-.451 3.388-1.258.87-.839 1.322-2.032 1.322-3.42V5.536c0-1.355-.451-2.517-1.29-3.355Zm-.129 10c0 1-.355 1.806-.935 2.355-.581.548-1.387.838-2.355.838h-6.58c-.969 0-1.775-.29-2.356-.838-.58-.581-.87-1.387-.87-2.387V5.535c0-.968.29-1.775.87-2.355.549-.549 1.387-.839 2.355-.839h6.645c.968 0 1.774.29 2.355.871.549.58.871 1.387.871 2.323v6.645Z" fill="#fff"/></svg>