<svg width="90" height="30" viewBox="0 0 90 30" fill="none" xmlns="http://www.w3.org/2000/svg"><path fill-rule="evenodd" clip-rule="evenodd" d="m65.425 11.439-.127.434.073.447 1.354 8.341v3.237h-7.356a6.472 6.472 0 0 1-.579 2h7.935a2 2 0 0 0 2-2V20.5l-1.38-8.5.724-2.476a2 2 0 0 0-1.66-2.545l-4.634-.606a.452.452 0 0 1-.28-.15A18.323 18.323 0 0 0 47.734 0H34.021a12.01 12.01 0 0 0-6.131 1.683l-8.958 5.319a2 2 0 0 1-1.021.28h-5.349C6.09 7.282.845 12.528.845 19v3l-.525.819c-.854 1.33.102 3.08 1.683 3.08h9.639a6.516 6.516 0 1 0-.58-2H2.003l.525-.82.317-.493V19a9.717 9.717 0 0 1 9.718-9.718h5.349a4 4 0 0 0 2.042-.56l8.958-5.32A10.01 10.01 0 0 1 34.022 2h13.712c4.693 0 9.16 2.02 12.258 5.544.393.447.934.735 1.524.813l4.633.605-.724 2.477Zm-18.412 14.46a6.517 6.517 0 1 0-.58-2H23.998a6.472 6.472 0 0 1-.579 2h23.594ZM29.795 10.004a1 1 0 1 0 0 2h3.723a1 1 0 0 0 0-2h-3.723ZM17.53 27.622a4.516 4.516 0 1 0 0-9.032 4.516 4.516 0 0 0 0 9.032Zm39.887-4.516a4.516 4.516 0 1 1-9.032 0 4.516 4.516 0 0 1 9.032 0Zm-4.516 2a2 2 0 1 0 0-4 2 2 0 0 0 0 4Zm-33.37-2a2 2 0 1 1-4 0 2 2 0 0 1 4 0Z" fill="#41456B"/><path d="M76.845 9h6.947m-6.947 6h12m-12 6h3.79" stroke="#41456B" stroke-width="2" stroke-linecap="round" stroke-linejoin="round"/></svg>