<svg width="80" height="58" viewBox="0 0 80 58" fill="none" xmlns="http://www.w3.org/2000/svg"><path fill-rule="evenodd" clip-rule="evenodd" d="M53.171 5.556 42.422 23.2H.744l17.642 29.207a11.586 11.586 0 0 0 4.22 4.1A11.556 11.556 0 0 0 28.291 58H38.38c2.006 0 3.977-.523 5.721-1.517a11.588 11.588 0 0 0 4.226-4.152L65.616 23.2 79.752 0h-16.7c-1.983 0-3.934.511-5.664 1.484a11.587 11.587 0 0 0-4.216 4.072Z" fill="#7380FF"/><path fill-rule="evenodd" clip-rule="evenodd" d="M53.171 52.444 42.422 34.8H.744L18.386 5.593a11.587 11.587 0 0 1 4.22-4.1A11.557 11.557 0 0 1 28.291 0H38.38c2.006 0 3.977.523 5.721 1.517 1.744.994 3.2 2.424 4.226 4.152L65.616 34.8 79.752 58h-16.7c-1.983 0-3.934-.511-5.664-1.484a11.587 11.587 0 0 1-4.216-4.072Z" fill="#7380FF"/></svg>