<svg width="24" height="24" viewBox="0 0 24 24" fill="none" xmlns="http://www.w3.org/2000/svg"><path fill-rule="evenodd" clip-rule="evenodd" d="M10.46 18.907a8.456 8.456 0 0 0 8.458-8.454C18.918 5.787 15.132 2 10.46 2S2 5.786 2 10.454c0 4.667 3.786 8.453 8.46 8.453Zm0 2c2.524 0 4.84-.894 6.647-2.383l5.186 5.183a1 1 0 1 0 1.414-1.415l-5.184-5.18a10.407 10.407 0 0 0 2.395-6.658C20.918 4.68 16.236 0 10.46 0 4.683 0 0 4.68 0 10.454c0 5.773 4.683 10.453 10.46 10.453Zm4-9.454a1 1 0 1 0 0-2h-8a1 1 0 1 0 0 2h8Z" fill="#fff"/></svg>