<svg width="43" height="32" viewBox="0 0 43 32" fill="none" xmlns="http://www.w3.org/2000/svg"><path fill-rule="evenodd" clip-rule="evenodd" d="m28.672 2.995-5.794 9.512H.41l9.51 15.745a6.246 6.246 0 0 0 5.34 3.015h5.438a6.23 6.23 0 0 0 5.362-3.057l9.322-15.703L43 0h-9.002a6.23 6.23 0 0 0-5.327 2.995Z" fill="#fff"/><path fill-rule="evenodd" clip-rule="evenodd" d="m28.672 28.271-5.794-9.511H.41L9.92 3.015A6.247 6.247 0 0 1 15.26 0h5.438a6.23 6.23 0 0 1 5.362 3.056l9.322 15.704L43 31.266h-9.002a6.23 6.23 0 0 1-5.327-2.995Z" fill="#fff"/></svg>