<svg width="28" height="29" viewBox="0 0 28 29" fill="none" xmlns="http://www.w3.org/2000/svg">
<path fill-rule="evenodd" clip-rule="evenodd" d="M0.585786 24.5858C-0.195262 25.3669 -0.195262 26.6332 0.585786 27.4143C1.36683 28.1953 2.63317 28.1953 3.41421 27.4143L13.5858 17.2427L23.9203 27.5772C24.7014 28.3583 25.9677 28.3583 26.7487 27.5772C27.5298 26.7962 27.5298 25.5298 26.7487 24.7488L16.4142 14.4143L26.7487 4.07974C27.5298 3.29869 27.5298 2.03236 26.7487 1.25131C25.9677 0.470264 24.7014 0.470265 23.9203 1.25131L13.5858 11.5858L3.41421 1.41425C2.63316 0.633204 1.36683 0.633204 0.585786 1.41425C-0.195262 2.1953 -0.195262 3.46163 0.585787 4.24268L10.7574 14.4143L0.585786 24.5858Z" fill="#41456B"/>
</svg>
