<svg width="17" height="17" viewBox="0 0 17 17" fill="none" xmlns="http://www.w3.org/2000/svg">
<path d="M8.85755 4.69556C6.59948 4.69556 4.72852 6.53427 4.72852 8.82459C4.72852 11.1149 6.56723 12.9536 8.85755 12.9536C11.1479 12.9536 12.9866 11.0827 12.9866 8.82459C12.9866 6.56652 11.1156 4.69556 8.85755 4.69556ZM8.85755 11.4697C7.40594 11.4697 6.21239 10.2762 6.21239 8.82459C6.21239 7.37297 7.40594 6.17943 8.85755 6.17943C10.3092 6.17943 11.5027 7.37297 11.5027 8.82459C11.5027 10.2762 10.3092 11.4697 8.85755 11.4697Z" fill="white"/>
<path d="M13.1503 5.5343C13.667 5.5343 14.0858 5.11547 14.0858 4.59881C14.0858 4.08216 13.667 3.66333 13.1503 3.66333C12.6337 3.66333 12.2148 4.08216 12.2148 4.59881C12.2148 5.11547 12.6337 5.5343 13.1503 5.5343Z" fill="white"/>
<path d="M15.5671 2.17976C14.7284 1.30879 13.5348 0.857178 12.18 0.857178H5.53484C2.72839 0.857178 0.857422 2.72815 0.857422 5.5346V12.1475C0.857422 13.5346 1.30903 14.7281 2.21226 15.5991C3.08323 16.4378 4.24452 16.8572 5.5671 16.8572H12.1477C13.5348 16.8572 14.6961 16.4056 15.5348 15.5991C16.4058 14.7604 16.8574 13.5669 16.8574 12.1798V5.5346C16.8574 4.17976 16.4058 3.01847 15.5671 2.17976ZM15.4381 12.1798C15.4381 13.1798 15.0832 13.9862 14.5026 14.5346C13.9219 15.083 13.1155 15.3733 12.1477 15.3733H5.5671C4.59936 15.3733 3.79291 15.083 3.21226 14.5346C2.63162 13.954 2.34129 13.1475 2.34129 12.1475V5.5346C2.34129 4.56685 2.63162 3.7604 3.21226 3.17976C3.76065 2.63137 4.59936 2.34105 5.5671 2.34105H12.2123C13.18 2.34105 13.9865 2.63137 14.5671 3.21202C15.1155 3.79266 15.4381 4.59911 15.4381 5.5346V12.1798Z" fill="white"/>
</svg>
