<svg width="93" height="58" viewBox="0 0 93 58" fill="none" xmlns="http://www.w3.org/2000/svg">
<path fill-rule="evenodd" clip-rule="evenodd" d="M36.8988 23.2H13.8364L0 9.26599e-09H16.4939C18.4964 -8.01854e-05 20.4646 0.520388 22.2063 1.51055C23.9481 2.50072 25.4037 3.92671 26.4309 5.6492L36.8988 23.2Z" fill="#D2D6FF"/>
<path fill-rule="evenodd" clip-rule="evenodd" d="M66.1711 5.5564L55.4221 23.2H13.7441L31.3857 52.4071C32.4172 54.1146 33.8708 55.5265 35.6061 56.5062C37.3414 57.486 39.2995 58.0005 41.2913 58H51.3788C53.3849 57.9997 55.3565 57.4771 57.1002 56.4833C58.844 55.4894 60.3001 54.0585 61.3258 52.3309L78.6168 23.2L92.7509 1.26254e-09H76.0519C74.0678 -2.93292e-05 72.117 0.510981 70.3867 1.48399C68.6565 2.45699 67.2048 3.85933 66.1711 5.5564Z" fill="#7380FF"/>
</svg>
