<svg width="80" height="58" viewBox="0 0 80 58" fill="none" xmlns="http://www.w3.org/2000/svg">
<path fill-rule="evenodd" clip-rule="evenodd" d="M53.1711 5.5564L42.4221 23.2H0.744141L18.3857 52.4071C19.4172 54.1146 20.8708 55.5265 22.6061 56.5062C24.3414 57.486 26.2995 58.0005 28.2913 58H38.3788C40.3849 57.9997 42.3565 57.4771 44.1002 56.4833C45.844 55.4894 47.3001 54.0585 48.3258 52.3309L65.6168 23.2L79.7509 1.26254e-09H63.0519C61.0678 -2.93292e-05 59.117 0.510981 57.3867 1.48399C55.6565 2.45699 54.2048 3.85933 53.1711 5.5564Z" fill="#7380FF"/>
<path fill-rule="evenodd" clip-rule="evenodd" d="M53.1711 52.4436L42.4221 34.8H0.744141L18.3857 5.59286C19.4172 3.88541 20.8708 2.47355 22.6061 1.49378C24.3414 0.514019 26.2995 -0.000495911 28.2913 0H38.3788C40.3849 0.00025177 42.3565 0.522911 44.1002 1.51674C45.844 2.51057 47.3001 3.94145 48.3258 5.66909L65.6168 34.8L79.7509 58H63.0519C61.0678 58 59.117 57.489 57.3867 56.516C55.6565 55.543 54.2048 54.1407 53.1711 52.4436Z" fill="#7380FF"/>
</svg>
