<svg width="18" height="13" viewBox="0 0 18 13" fill="none" xmlns="http://www.w3.org/2000/svg">
<path d="M17.3847 2.27738C17.1902 1.55445 16.6203 0.984565 15.8974 0.789901C14.5769 0.428589 9.29471 0.428589 9.29471 0.428589C9.29471 0.428589 4.01273 0.428589 2.69221 0.776203C1.98328 0.970661 1.39939 1.55455 1.20493 2.27738C0.857422 3.5978 0.857422 6.33617 0.857422 6.33617C0.857422 6.33617 0.857422 9.08835 1.20493 10.395C1.3996 11.1178 1.96938 11.6877 2.69231 11.8823C4.02663 12.2438 9.29492 12.2438 9.29492 12.2438C9.29492 12.2438 14.5769 12.2438 15.8974 11.8961C16.6204 11.7016 17.1902 11.1317 17.3849 10.4089C17.7323 9.08835 17.7323 6.35008 17.7323 6.35008C17.7323 6.35008 17.7462 3.5978 17.3847 2.27738ZM7.61298 8.86598V3.80637L12.0054 6.33617L7.61298 8.86598Z" fill="white"/>
</svg>
