<svg width="24" height="24" viewBox="0 0 24 24" fill="none" xmlns="http://www.w3.org/2000/svg">
<path fill-rule="evenodd" clip-rule="evenodd" d="M10.4592 18.907C15.1322 18.907 18.9184 15.1212 18.9184 10.4535C18.9184 5.78579 15.1322 2 10.4592 2C5.78629 2 2 5.78579 2 10.4535C2 15.1212 5.78629 18.907 10.4592 18.907ZM10.4592 20.907C12.9841 20.907 15.3001 20.0128 17.1074 18.5239L22.2932 23.7069C22.6838 24.0973 23.317 24.0972 23.7074 23.7065C24.0978 23.3159 24.0977 22.6827 23.707 22.2923L18.5231 17.1113C20.0194 15.3031 20.9184 12.9832 20.9184 10.4535C20.9184 4.68018 16.2357 0 10.4592 0C4.68275 0 0 4.68018 0 10.4535C0 16.2268 4.68275 20.907 10.4592 20.907ZM10.4592 5.45348C11.0115 5.45348 11.4592 5.9012 11.4592 6.45348V9.45348H14.4592C15.0115 9.45348 15.4592 9.9012 15.4592 10.4535C15.4592 11.0058 15.0115 11.4535 14.4592 11.4535H11.4592V14.4535C11.4592 15.0058 11.0115 15.4535 10.4592 15.4535C9.90693 15.4535 9.45922 15.0058 9.45922 14.4535V11.4535H6.45922C5.90693 11.4535 5.45922 11.0058 5.45922 10.4535C5.45922 9.90119 5.90693 9.45348 6.45922 9.45348H9.45922V6.45348C9.45922 5.9012 9.90693 5.45348 10.4592 5.45348Z" fill="white"/>
</svg>
