<svg width="24" height="24" viewBox="0 0 24 24" fill="none" xmlns="http://www.w3.org/2000/svg">
<path fill-rule="evenodd" clip-rule="evenodd" d="M10.4592 18.907C15.1322 18.907 18.9184 15.1212 18.9184 10.4535C18.9184 5.78579 15.1322 2 10.4592 2C5.78629 2 2 5.78579 2 10.4535C2 15.1212 5.78629 18.907 10.4592 18.907ZM10.4592 20.907C12.9841 20.907 15.3001 20.0128 17.1074 18.5239L22.2932 23.7069C22.6838 24.0973 23.317 24.0972 23.7074 23.7065C24.0978 23.3159 24.0977 22.6827 23.707 22.2923L18.5231 17.1113C20.0194 15.3031 20.9184 12.9832 20.9184 10.4535C20.9184 4.68018 16.2357 0 10.4592 0C4.68275 0 0 4.68018 0 10.4535C0 16.2268 4.68275 20.907 10.4592 20.907ZM14.4592 11.4535C15.0115 11.4535 15.4592 11.0058 15.4592 10.4535C15.4592 9.9012 15.0115 9.45348 14.4592 9.45348H6.45922C5.90693 9.45348 5.45922 9.90119 5.45922 10.4535C5.45922 11.0058 5.90693 11.4535 6.45922 11.4535H14.4592Z" fill="white"/>
</svg>
