<svg version="1.2" xmlns="http://www.w3.org/2000/svg" viewBox="0 0 72 50" width="72" height="50"><style>.a{fill:#fcfcfb}</style><path fill-rule="evenodd" class="a" d="m18.9 45q-0.2 0.7-0.5 1.6c-0.3 0.8-1 1.6-1.9 1.7q-0.4 0-0.8 0.1c-0.9 0.2-1.6 0.1-2.4 0.2q-3.3 0.3-6.6-0.1c-1.7-0.2-2.7-0.7-3.2-2.5q-0.5-1.8-0.6-3.5-0.1-1.4-0.1-2.7-0.2-2.2 0-5c0.1-1.1 0-2.2 0.2-3.2 0.2-1.1 0.2-2.1 0.3-3.2q0.3-1.4 0.9-4.2 0.1-0.8 0.7-1.5c0.2-0.4 0.6-0.5 0.9-0.8q0.8-0.7-0.2-0.7c-0.4 0.1-0.6-0.1-0.9-0.1q-1.1 0.1-2.2-0.1-0.8-0.1-0.8-0.8c0-0.8-0.2-2.9 1.1-2.9q2.8 0 5.5 0c0.4 0 0.9-0.2 1.1-0.6q2.2-4.3 4.8-7.7c2.2-2.8 4.7-4.9 8.1-5.9q2.9-0.9 6.5-1.3c0.5-0.1 1 0 1.5-0.1q1.1-0.3 2.4-0.3c2.2 0.1 4.4-0.2 6.4-0.1q2.1 0.1 4.7 0.2c0.8 0 1.5 0.2 2.3 0.2 1 0.1 1.9 0.3 2.8 0.5q6.1 1.2 9.6 6.2 1.7 2.6 2.2 3.7 0.3 0.7 0.8 1.3c0.6 0.9 1.1 2 1.7 3q0.1 0.2 0.2 0.3 0.1 0.1 0.3 0.2 0.1 0.1 0.3 0.1 0.2 0.1 0.3 0.1 2.7 0 5.3 0c1.5-0.1 1.3 1.8 1.3 2.8q0 0.2-0.1 0.3-0.1 0.2-0.2 0.3-0.1 0.1-0.3 0.2-0.2 0.1-0.4 0.1-1.8 0-3.3 0.2-0.1 0-0.1 0 0 0-0.1 0.1 0 0.1 0 0.1 0 0.1 0.1 0.1 0.3 0.4 0.8 0.7c0.3 0.2 0.8 0.8 0.9 1.2 0.5 1.6 0.8 3.1 1 4.8q0.2 0.9 0.2 1.8c0 0.8 0.3 1.5 0.3 2.4q0 2.4 0.2 5.1 0 0.4 0 0.8 0 0.1 0 0.1 0 0.1 0 0.1 0 0 0 0 0 0.1 0 0.1l0.1 0.1q0.1 0 0.1 0.1-0.1 3.5-0.2 6.9 0 0.5-0.1 1c-0.1 0.7-0.2 1.7-1.1 1.8-0.4 0-0.7 0.2-1.1 0.2q-1.3 0.1-3 0.2-1.8 0.1-4.6 0.1c-0.8 0-1.4-0.2-2.1-0.2q-0.5-0.1-0.9-0.2c-0.3-0.2-0.7-0.2-1-0.4-1.1-0.7-1.6-1.8-1.9-3q0-0.1-0.1-0.1 0 0 0-0.1 0 0 0 0-0.1 0-0.1 0-0.5-0.2-0.9-0.2-3.1 0.2-6.2 0.2-11 0-22.7 0-2.5-0.1-5 0-0.2 0-0.2 0.2zm41.3-28.6q-0.7-0.8-1.1-1.7-1.5-2.6-3.3-5.1c-1.2-1.9-3.2-4-5.2-4.6q-2.6-0.9-5.6-1.2c-4.5-0.4-8.2-0.5-12.3-0.3q-2.7 0.2-5.7 0.8-3.3 0.7-5.4 1.8-2.6 1.4-4.7 3.8-1.9 2.3-3.1 4.4-0.8 1.4-1.7 2.6 0 0 0 0.1 0 0 0 0.1 0 0 0.1 0.1 0 0 0 0c0.4 0.1 0.6 0.1 0.9 0q0.8-0.1 2.2-0.1c3.7-0.1 7.4 0.1 11.1-0.2q2.1-0.1 4-0.1 3-0.1 5.8-0.2 6.2-0.2 11 0 5.2 0.2 10.8 0.2 1-0.1 1.9 0.1 0.1 0 0.1-0.1 0.1 0 0.2-0.1 0 0 0-0.1 0-0.1 0-0.2zm4.3 15.3v-3.3q0-0.2-0.1-0.4-0.1-0.2-0.2-0.4-0.2-0.1-0.4-0.2-0.2-0.1-0.4-0.1h-3.1q-0.4 0-0.8 0.1-0.4 0.2-0.7 0.4-0.4 0.3-0.5 0.6-0.2 0.3-0.2 0.7v1.9q0 0.4 0.2 0.7 0.1 0.3 0.5 0.6 0.3 0.2 0.7 0.4 0.4 0.1 0.8 0.1h3.1q0.2 0 0.4-0.1 0.2-0.1 0.4-0.2 0.1-0.2 0.2-0.4 0.1-0.2 0.1-0.4zm-51.3 1.6q1.3 0 2-1 0.1-0.1 0.1-0.2 0-1.1 0-2.2c0-0.5-0.3-0.9-0.5-1.3q-0.1-0.2-0.2-0.3c-0.3-0.1-0.5-0.3-0.8-0.3-0.9 0.1-1.6-0.3-2.5-0.1q-0.9 0.1-1.7 0.1-0.1 0-0.2 0.1-0.1 0-0.2 0.1-0.1 0-0.1 0.1-0.1 0.1-0.1 0.2-0.3 1.3-0.5 2.6-0.1 0.8 0.1 1.3 0 0.2 0.1 0.3 0.1 0.2 0.3 0.3 0.1 0.1 0.3 0.2 0.2 0 0.3 0 0.7 0 1.3 0.2 0 0 0.1 0 0 0 0.1 0 0 0 0 0 0.1 0 0.1 0c0.8-0.3 1.3 0 2-0.1zm25.6-1.1q-1.7 0.2-3.3 0.1-4-0.2-7.6-0.2c-0.8 0-1.6 0.3-1.8 1.2q-0.4 1.9-0.4 3.6 0 0.8 0.6 1.1 1.2 0.6 3.1 0.4 5.9-0.3 11.5 0 0.9 0 2 0c1.2 0 2.3 0 3.4-0.3q0-0.1 0-0.1 0.1 0 0.1-0.1 0.1 0 0.1 0 0-0.1 0-0.2 0.2-1.7-0.1-3.6c-0.2-1.1-0.3-2.2-1.8-2.2q-3.5 0.1-5.8 0.3z"/></svg>