<svg width="1440" height="600" viewBox="0 0 1440 600" fill="none" xmlns="http://www.w3.org/2000/svg"><path d="m59.047 621.97-7.268 2.555H58.7l1.077-.382.135.382h2.441l-.384-1.144 121.953-42.965c2.903 13.463 6.21 28.128 9.882 44.109h11.902c-15.555-68.004-24.053-110.378-25.187-137.953 19.899-5.95 34.954-6.389 38.549-6.389l9.517 33.106c.096.343.346.61.673.744a1.152 1.152 0 0 0 1-.038l27.609-14.971c.519-.286.73-.896.519-1.43l-12.19-30.417 15.881-7.952 17.323-8.314 16.997 14.016-69.812 159.598h2.519l30.589-69.93 41.549 16.4 2.672 23.38-39.03 6.007a1.143 1.143 0 0 0-.98 1.068l-1.557 23.075h2.326l1.48-22.007 14.901-2.288 1.327 24.295h17.803l-2.115-26.908 7.287-1.125 27.782-3.604 6.191 31.637h2.365l-6.249-31.943 15.651-2.04 3.537 15.618-11.555 18.346h2.73l9.537-15.161 3.441 15.161h4.749l-4.364-19.28 43.894-17.792 11.016 29.577c.193.534.769.858 1.346.725l13.093-3.07 2.904 9.84h2.422l-3.384-11.538a1.174 1.174 0 0 0-1.384-.801l-13.17 3.09-10.69-28.701 91.691-37.167 63.255-9.574 9.017 19.738c.077.153.173.286.288.4l24.668 21.321 31.858 36.1 6.306 7.132h3.076l-6.979-7.895 14.285-16.4 13.651 20.824c.231.343.596.515.981.515.211 0 .442-.057.634-.191a1.136 1.136 0 0 0 .346-1.583l-14.477-22.083-11.305-18.25 23.148-21.282 11.824 13.292-.307 23.856c0 .63.5 1.164 1.153 1.164h.02a1.14 1.14 0 0 0 1.153-1.144l.308-24.315c0-.286-.096-.553-.289-.782l-12.151-13.673 11.459-10.546 30.051 16.153c.173.095.365.133.558.133.327 0 .673-.152.884-.419l6.922-8.239 3.518 8.639c.135.324.423.572.769.687l16.4 4.519 5.48 16.496c.058.171.154.324.269.438l39.03 40.048h6.094l49.816-47.084h.019s0-.019.019-.019l27.821-26.298 53.2 28.948 9.209 22.293-16.939 22.217h2.904l28.974-37.911.019.019c.212.171.481.247.731.247.346 0 .673-.152.903-.419a1.145 1.145 0 0 0-.173-1.621l-.077-.057 15.458-20.234 18.496 14.398c-5.056 6.332-10.132 12.663-15.208 19.013l-.019.019c-.019.019-.038.038-.038.057-3.115 3.91-6.23 7.8-9.345 11.71-4.422 5.53-8.402 10.526-11.824 14.798h20.899c3.576-9.478 6.749-16.095 9.402-19.432.385-.477.769-.973 1.173-1.469l19.938 13.94c.211.134.442.21.672.21.347 0 .693-.152.923-.457l7.422-9.764a1.128 1.128 0 0 0-.231-1.602 1.148 1.148 0 0 0-1.615.229l-6.748 8.886-18.919-13.215a17570.8 17570.8 0 0 1 43.762-54.579l42.55 21.206-31.15 56.028h2.65l6.52-11.709 21.61 11.709h4.83l-25.33-13.731 25.88-46.569 16.29-28.758c.06-.114.11-.247.13-.362l4.96-28.815v-.038l100.48 7.723-15.4 14.17c-.4.381-.5.991-.19 1.449l13.96 21.911-45.15 73.02h2.73l44.01-71.246 77.72 70.712-.33.534h6.73l-2.91-1.163 36.71-39.228 51.75 23.628c-2.03 5.473-4.11 11.08-6.21 16.763h12.39c2.32-6.331 4.63-12.548 6.86-18.555 4 6.522 7.86 12.796 11.46 18.555h13.65a1989.05 1989.05 0 0 1-10.88-17.449l31.78 12.453 11.9 4.996h5.94l-15.9-6.675 22.84-55.303 9.67 3.89v-2.479l-8.78-3.547 8.78-21.282v-6.064l-1.79 4.309-20.49-9.535 6-12.529 16.28 6.084v-2.46l-15.3-5.721 5.02-10.489a1.17 1.17 0 0 0-.16-1.22l10.44 4.271v-2.479l-32.03-13.082c1.6-3.509 3.25-7.132 4.9-10.794l27.13 11.271v-2.498l-26.18-10.87c3.48-7.705 6.99-15.581 10.38-23.171l15.82 6.37v-12.415l-11.11-4.481c4.19-9.44 7.98-18.041 10.92-24.734l.19.095v-32.324c-11.67 21.511-27.82 42.298-65.58 53.435-1.88.286-3.79.61-5.71.991-16.94 3.357-60.49 2.823-97.21 1.107l12.21-40.143 30.74-41.535 38.9 27.671c.21.153.44.21.67.21.37 0 .71-.172.94-.477.37-.515.25-1.24-.27-1.602l-38.89-27.633 20.84-28.166L1442 372.933v-2.479l-103.11-42.317-28.8-27.079 48.87-59.556 83.02 41v-12.853l-76.79-37.93L1442 81.56V60.812l-21.76 4.71 6.59-23.265a158.9 158.9 0 0 0 15.19 6.56V36.48c-7.32-2.975-12.96-5.988-15.01-7.133-8.21-9.954-78.81-95.54-91.29-107.135-12.27-11.423-57.22-31.39-68.01-36.081-30.33-55.246-75.32-138.163-77.92-145.677-.9-4.405-4.56-37.625-7.9-69.415h-11.65c.67 6.465 1.42 13.502 2.19 20.596l-7.37-20.615h-12.3l3.9 10.927-53.97-4.1 1.02-6.827h-2.34l-1 6.656-47.7-3.624-.33-3.032h-4.67l.36 3.261-24.05 3.909-1.81-7.17h-2.38l1.92 7.533-36.816 5.969-1.461-13.502h-2.326l1.48 13.883-47.758 7.743-3.576-21.626h-2.346l3.634 22.007-46.817 7.59c-.211-10.26-.384-19.947-.519-28.376l7.268-1.221h-33.281l-33.416 1.316.077-1.316h-2.326l-1.596 30.131h-15.189c-.25 0-.48.076-.692.229a3221.41 3221.41 0 0 1-24.36 17.582L779.191-297l17.573-7.59c.365-.153.634-.515.692-.916l2.788-21.415a1.146 1.146 0 0 0-.942-1.278l-4.269-.782h-12.631l15.419 2.861-2.557 19.68-17.784 7.685c-.481.21-.769.706-.692 1.24l2.807 17.983a775.718 775.718 0 0 1-6.787 4.767c-8.614 5.912-43.029 17.087-46.009 18.041l-24.072-1.373-43.24-47.847-5.729-17.964 7.69-5.073h-4.191l-4.23 2.784-.903-2.784h-2.442l7.652 23.952c.058.153.135.305.25.42l42.567 47.141-90.345 33.01c-2.115-.476-15.362-3.699-17.938-11.651-.981-2.994-7.921-18.46-16.996-38.541.019 0 .058 0 .077-.019l44.201-21.473 11.671 27.251c.134.305.384.534.692.629a1.17 1.17 0 0 0 .942-.095l26.744-14.76a1.18 1.18 0 0 0 .557-.725 1.13 1.13 0 0 0-.134-.896l-22.149-35.337c-.269-.439-.807-.629-1.307-.496l-22.284 6.236-6.268-14.646h-2.518l13.151 30.722-44.298 21.53c-.385-.858-.769-1.697-1.154-2.555-6.787-15.008-14.804-32.744-22.321-49.697h-2.538c7.498 16.896 15.573 34.803 22.744 50.631 10.056 22.255 17.996 39.838 19.015 42.946 2.673 8.257 14.305 11.862 18.496 12.911-2.826 5.225-13.458 24.6-18.207 29.31-3.826 3.795-19.188 13.006-28.301 18.327l-36.05-35.757-54.757-118.368H458.11l23.264 50.307-85.231-7.571a51541.78 51541.78 0 0 1 28.494-42.736h-13.92a15609.46 15609.46 0 0 0-25.379 38.083l7.171-38.083h-2.364l-5.076 26.984-45.625-11.671 3.154-15.313h-2.365l-8.614 41.821-50.834-13.273 2.115-28.548h-2.327l-2.172 29.33v.038l-3.346 76.3a1.155 1.155 0 0 0 .865 1.163l21.457 5.435-45.47 29.959-35.069-102.159c4.345-5.702 14.285-20.252 20.245-40.085h-12.228c-5.633 16.686-14.093 28.91-17.477 33.373l-7.671-13.368c-.173-.306-.461-.496-.808-.573a1.238 1.238 0 0 0-.961.248l-15.862 13.369-42.471-33.03h-3.749l44.452 34.593-43.529 36.672-1.654-32.514a1.14 1.14 0 0 0-.865-1.049l-13.247-3.319a1.222 1.222 0 0 0-.692.039L93.692-284.7l-42.182-3.757 8.748-32.629h16.38c.52 0 .981-.362 1.116-.858l1.865-7.037h-2.403l-1.48 5.607H59.468l-13.112-2.727.558-2.88H44.55l-.462 2.403-11.555-2.403H21.228l22.437 4.653-6.786 35.032-22.822 10.927L.02-281.096v2.346l12.901 2.517-2.422 19.375L.02-259.566v2.384l2.942.763-2.942 30.97v24.543l2-21.053 40.49 7.914-3.537 39.36L.02-175.981v2.307l39.972 1.335h.039l42.279-.648 6.998 44.662c-31.685-2.689-65.87-12.186-89.288-19.833v12.148a558.93 558.93 0 0 0 17.823 5.377c34.108 9.688 63.524 14.57 87.692 14.57 3.634 0 7.152-.114 10.536-.324 8.863-.572 17.919-2.136 26.936-4.348l37.242 8.905-4.057 24.677c-15.458-3.242-33.762-8.085-34.031-8.143-.077-.019-.153-.038-.211-.038l-32.973-2.307c-.174 0-.347.019-.5.076L24.593-65.184.02-91.596v3.394L23.074-63.41l-.98 24.372c0 .172.019.324.076.477L36.686-2.996l-1.96 9.039L.02-68.464v27.423L35.898 36.02c-4.441 2.65-8.287 4.958-11.44 6.846L.021 26.028v13.998l17.016 11.728L8.327 71.7C6.251 66.876 3.501 61.918.021 56.98v25.745a62.55 62.55 0 0 1 1.596 6.274c.039.343.096.686.212 1.03 2.576 13.94-.116 25.363-1.808 30.645v19.032l8.556-9.84a5.46 5.46 0 0 0 .923-1.449c.48-1.106 7.595-17.716 3.941-39.475l15.4-35.261c3.904-2.346 7.903-4.73 11.96-7.17l34.992 75.174-27.071 10.031a1.185 1.185 0 0 0-.75.915l-2.807 18.594-13.94 31.294-23.167 11.747c-.538.267-.769.915-.538 1.468l57.62 136.103 9.806 23.132c-5.076 2.288-9.998 4.539-14.785 6.713L.022 222.336v5.836l58.044 134.501c-2.903 1.316-5.73 2.613-8.517 3.871L.02 250.636v5.893l47.432 110.969c-6.345 2.899-12.382 5.645-18.054 8.238l-17.419-44.7c-.23-.591-.903-.877-1.5-.668a1.154 1.154 0 0 0-.672 1.488l17.477 44.834A6963.847 6963.847 0 0 0 .02 389.181v12.681c8.345-3.833 18.958-8.715 31.436-14.417l14.996 38.484c-15.727 6.808-30.916 13.387-44.701 19.337l-1.73-5.092v8.334a2.36 2.36 0 0 1 .326-.134l32.57 96.304L.02 558.237v2.498l33.627-13.864 25.399 75.099Zm225.66 2.517-1.346-24.62 12.401-1.907 2.019 25.84-13.074.687Zm330.079-936.686 21.168-5.931 21.034 33.621-24.552 13.558-17.65-41.248ZM183.422 578.146 61.238 621.207l-25.436-75.213 37.145-15.313c.577-.248.865-.896.635-1.488l-7.787-19.89c-.02-.057-.058-.095-.096-.152l99.285-35.242 4.095-1.449c-1.557 23.132 3.692 56.18 14.343 105.686Zm724.317-790.094a1.128 1.128 0 0 0-.5-1.048 1.174 1.174 0 0 0-1.173-.077l-17.4 8.544c-.75-13.483-1.403-32.439-1.942-52.424l54.315 1.354.48 2.918c-.115 1.239-.884 9.649-1.019 21.682 0 .077-.019.134 0 .21-.057 6.179.058 13.311.52 20.92 0 .019-.02.057-.02.076 0 .058.02.096.039.153.673 11.003 2.096 22.96 4.768 34.46 2.884 12.357 10.267 38.674 18.784 68.004l-66.542 11.651c-.135-1.868-.27-3.756-.404-5.644l10.094-110.779Zm-11.113 96.457c-2.307-31.256-4.826-62.073-6.441-71.303-.481-2.784-.942-8.143-1.365-15.275l16.438-8.067-8.632 94.645ZM1058.88-227.28l3.54 32.19-25.11-7.704v-26.889l21.57 2.403Zm-21.57-4.748v-32.668l17.84 3.567 3.46 31.503-21.3-2.402Zm-28.57 100.804-6.06-17.525 64.43-3.814 1.02 9.287-59.39 12.052Zm59.64-9.783 1.11 10.05-53.18 21.607-6.81-19.7 58.88-11.957Zm-66.49-10.012-2.884-8.333a1.152 1.152 0 0 0-1.48-.706c-.615.21-.923.858-.711 1.469l17.705 51.184c.1.305.33.534.62.667.15.076.3.096.48.096.15 0 .31-.039.44-.077l53.7-21.816.02.267c-6.25 22.617-14.92 47.046-20.94 57.039l-66.291 16.972c-13.766-46.397-29.897-101.739-34.493-121.457-2.557-10.966-3.941-22.37-4.633-32.934h31.839c.634 0 1.153-.515 1.153-1.145v-9.268l21.419 6.579-10.613 31.752a1.15 1.15 0 0 0 1.096 1.507c.48 0 .942-.305 1.095-.782l10.618-31.79 11.57 3.547v30.474c0 .629.52 1.144 1.15 1.144h51.66l2.41 21.797-64.93 3.814Zm115.99 113.372-6.09-14.016c-.25-.572-.91-.84-1.48-.61l-11.15 4.31c-.43.152-.7.533-.73.972l-1.62 20.195-32.15 8.658a1.12 1.12 0 0 0-.82 1.335l4.32 21.015c.12.553.6.916 1.14.916.08 0 .15 0 .23-.02l53.81-10.87c.31 8.925.56 16.23.7 20.196-26.31-.458-57.26-1.469-62.36-4.215-6.9-3.738-45.12-35.07-69.249-55.17l128.299-32.838c.31 8.276.86 23.551 1.46 39.513l-4.31.63Zm4.37 1.697c.34 9.63.71 19.357 1 27.862l-53.07 10.717-3.86-18.822 31.88-8.562c.48-.134.8-.534.84-1.011l1.62-20.29 9.42-3.643 6 13.807c.21.476.73.763 1.23.686l4.94-.743Zm91.55 422.995v.229c.29 13.063-.55 24.543-.96 28.223-2.52-.724-8.63-2.498-16.8-4.996.02-.095.04-.172.02-.267l-3.91-32.057a1.154 1.154 0 0 0-1.28-1.011c-.64.077-1.1.649-1.02 1.278l3.8 31.313c-15.01-4.634-35.89-11.423-54.21-18.593 8.63-9.421 14.95-15.676 18.01-17.487 8.86-5.283 29.57-12.93 51.78-20.367 3.13 9.573 4.3 22.235 4.57 33.735Zm-2.38-34.46c21.99-7.323 45.12-14.36 59.52-18.651l-54.93 50.67c-.38-11.061-1.63-22.903-4.59-32.019Zm-319.793 54.941a1.168 1.168 0 0 0-1.365-.782l-18.4 4.329c-.596.134-.98.706-.884 1.297l2.461 15.065-15.689 4.92-9.517-29.749 56.949-14.036 4.114 26.165-13.593 5.606-4.076-12.815Zm1.903 13.635-17.842 5.588-2.23-13.674 16.304-3.833 3.768 11.919Zm-22.725 51.985-5.711-17.849 50.201-13.368 5.018 18.517-49.508 12.7Zm50.104-10.488 6.633 24.467-51.719 11.308-4.461-23.055 49.547-12.72Zm-52.008 12.09 4.692 24.334-41.702 16.114-29.071-33.373 48.355-62.397 4.71 14.722v.038l6.595 20.596v.019c0 .019.019.019.019.019l6.402 19.928Zm-38.991 41.668-31.723 26.641-23.399-25.096 26.59-34.307 28.532 32.762Zm20.419-99.66-77.137 99.527-45.759-49.067 98.67-94.188 15.035 16.133-31.742 36.463a1.142 1.142 0 0 0 .115 1.621 1.164 1.164 0 0 0 1.634-.115l31.07-35.699 8.114 25.325Zm-126.068 50.307-9.056 8.639-24.417-28.205 36.088-35.451 25.244 28.395-26.321 25.135a1.188 1.188 0 0 0-1.288.19 1.167 1.167 0 0 0-.25 1.297Zm-182.535-12.224a1.186 1.186 0 0 0-1.558.534l-10.344 20.939-12.093 1.507-9.786-15.314 13.997-16.991h21.399c.634 0 1.153-.515 1.153-1.144 0-.63-.519-1.145-1.153-1.145h-20.784v-16.419l18.496 2.632c.057 0 .115.019.173.019.307 0 .596-.115.826-.344.25-.248.385-.61.327-.972l-3.537-25.764a1.128 1.128 0 0 0-.731-.915l-15.343-5.95 10.729-44.929 9.555 2.498a1.162 1.162 0 0 0 1.384-.706l13.478-35.985 2.25 2.632c.019.019.057.038.077.057.019.019.019.057.038.076l99.554 83.451-25.917 24.352-61.505-52.652a1.164 1.164 0 0 0-1.634.114l-10.613 11.938a1.14 1.14 0 0 0 .096 1.621c.48.42 1.211.382 1.634-.095l9.863-11.08 26.648 22.827-12.709 12.11a1.14 1.14 0 0 0-.038 1.621l29.705 31.046-14.42 13.539-28.513 26.794-12.747-14.722a1.184 1.184 0 0 0-1.634-.134 1.161 1.161 0 0 0-.135 1.621l12.824 14.818-15.381 14.436-23.398-23.514 10.266-20.767c.327-.686.077-1.373-.499-1.64Zm-233.101-51.623 7.133 31.447-9.114 3.432-11.074-31.179 13.055-3.7Zm-14.901 1.831-43.009 11.842-10.017-34.383a1.163 1.163 0 0 0-.904-.82l-14.035-2.46a62.075 62.075 0 0 0-.904-6.026 31.567 31.567 0 0 0-.634-2.517l71.868-22.675 12.016 52.958-14.381 4.081Zm6.345-60.49a2.249 2.249 0 0 0-1.115-1.488c-.193-.114-.404-.152-.596-.191l-4.557-15.141 59.044-19.738 18.669 55.818-13.381 5.321c-.539.21-.846.801-.693 1.354l15.208 56.791-52.449 5.95-20.13-88.676Zm82.577-37.378 16.746-6.522 21.572 43.442-21.033 8.372-17.285-45.292Zm15.131 46.15-24.129 9.592-15.458-46.245 22.303-8.677 17.284 45.33Zm-40.317-38.827-2.788-8.353-4.153-12.395 38.876-13.235 8.978 18.079-40.913 15.904Zm2.461 56.371 62.082-24.696 25.34 51.032 2 14.303-34.358 5.988c-.077.019-.173.038-.25.076l-16.131 6.732-23.648 2.689-15.035-56.124Zm64.235-25.554 54.911-21.854.096 1.507-17.515 84.404-10.017 1.754-2.019-14.417a1.024 1.024 0 0 0-.116-.343l-25.34-51.051Zm38.472 66.231 12.036 1.964 4.806 7.723-16.323 8.582h-.019l-29.147 16.095-16.9-26.431 45.547-7.933Zm-28.32 36.824 29.031-16.019 15.305 23.056-39.703 19.299-13.016-18.021 8.383-8.315Zm31.069-17.125 15.324-8.047 20.091 32.209-19.822-.648-15.593-23.514Zm17.381-9.134 8.748-4.596c.346-.191.577-.534.615-.916l2.058-23.627 16.361-6.999c.596-.248.865-.935.616-1.507a1.161 1.161 0 0 0-1.519-.61l-16.996 7.266a1.167 1.167 0 0 0-.693.953l-2.076 23.685-8.325 4.367-5.172-8.295a1.146 1.146 0 0 0-.788-.534l-11.555-1.888 17.457-84.137c.019-.096.019-.191.019-.305l-.153-2.708a1.12 1.12 0 0 0 .077-.992c-.039-.095-.097-.153-.154-.229l-1.173-19.776a1.451 1.451 0 0 0-.135-.495l-14.381-25.917 62.813-8.085 6.806 22.941a.897.897 0 0 0 .231.419l20.802 24.162-13.554 36.214-9.69-2.536a1.11 1.11 0 0 0-.885.134 1.151 1.151 0 0 0-.538.724l-11.228 47.046c-.019.096-.039.172-.039.267v47.771l-13.574 16.495-23.975-38.292Zm209.068-276.097c.212.362.596.572 1 .572.192 0 .384-.058.577-.153l.48-.286c1.769 2.365 3.538 4.729 5.211 6.999-.25 0-.5.057-.712.229l-27.59 21.186-14.15-20.214c10.632-12.739 19.668-23.837 22.591-27.423 4.018 5.206 8.671 11.29 13.228 17.373l-.25.134a1.211 1.211 0 0 0-.385 1.583Zm7.998 9.191c.193-.152.308-.362.385-.572 7.152 9.707 12.881 17.85 13.689 19.967-2 2.097-14.266 12.071-27.302 22.521l-14.458-20.652 27.686-21.264Zm-15.035 43.366a3283.754 3283.754 0 0 1-16.842 13.387c-.5.4-.577 1.125-.192 1.621.23.286.557.439.903.439.25 0 .5-.077.731-.248 10.671-8.429 45.586-36.138 46.739-38.274.346-.629 1.115-2.155-20.187-30.493l27.109-15.428 2.768 7.495c.212.591.885.896 1.481.686.596-.229.903-.877.692-1.468l-3.249-8.772a1.12 1.12 0 0 0-.692-.687 1.26 1.26 0 0 0-.981.076l-15.439 8.773-3.999-7.4 20.649-13.463a1.138 1.138 0 0 0 .327-1.602 1.158 1.158 0 0 0-1.615-.324l-21.534 14.035a1.143 1.143 0 0 0-.384 1.507l4.537 8.391-11.112 6.312a2079.506 2079.506 0 0 0-14.074-18.403l3.307-43.918 51.911-39.056 29.57 58.431 13.747 60.357-11.44 2.021a1.174 1.174 0 0 0-.538.248l-99.285 82.746-82.885 31.98-6.922-27.747a1.143 1.143 0 0 0-.961-.858l-44.797-6.255 3.595-44.529c17.611 3.776 42.798 8.429 60.121 8.429 8.133 0 14.516-1.03 17.592-3.642 7.325-6.255 25.917-27.938 41.644-46.741l29.705 42.374ZM660.391 83.982l-28.705-22.731c16.496-11.023 43.548-29.14 65.697-44.166l21.418 22.94-58.41 43.957Zm380.429 237.996.41 28.986c-.04-.038-.08-.057-.12-.095-57.6-48.744-92.361-77.94-107.762-90.831l19.727-25.802 53.965 27.785c.18.095.35.134.54.134.42 0 .83-.229 1.04-.63.29-.572.08-1.258-.5-1.544l-82.02-42.222-11.459-52.233 21.399-23.589 82.37 26.469-10.81 34.86c-.19.61.15 1.259.77 1.43.12.038.23.058.35.058.5 0 .96-.325 1.11-.82l10.9-35.128h26.75l-8.14 45.864 1.48 107.308Zm-378.487 79.636-14.939-12.529 68.504-61.539c.25-.21.384-.534.384-.858v-28.91l44.894-27.061a1.12 1.12 0 0 0 .346-.324l14.862-20.71 21.322-4.825 21.553 6.141 2.249 9.306v.019l10.882 44.872-87.71 86.14v.019l-56.199 55.189-26.821 22.54-7.979-25.096c-.058-.21-.192-.381-.346-.534l-17.612-15.065 26.687-25.077c.23-.229.365-.534.365-.859a1.29 1.29 0 0 0-.442-.839Zm138.238-292.116 8.805 24.048-32.8 5.721-5.249-23.018 29.244-6.751Zm-29.763 4.52-3.057-13.445 26.552-8.18 5.46 14.912-28.955 6.713Zm39.357 21.721 13.054 35.661-36.53 7.323c-.5.095-.846.515-.903.991l-8.71-38.197 33.089-5.778Zm10.286 93.348-27.936-24.734 39.472-9.02 9.267 25.306-20.803 8.448Zm21.63-6.293 11.343 27.728-29.955 8.066-2.095-8.638v-18.765l20.707-8.391Zm-51.143-20.443-4.979-21.874c.211.324.576.515.961.515.077 0 .154 0 .231-.019l36.876-7.399 7.171 19.566-40.26 9.211Zm-3.345-4.177-24.437 11.862-4.384-5.282c-.403-.496-1.134-.554-1.634-.153-.5.4-.557 1.125-.154 1.621l4.98 5.969c.231.267.558.419.884.419.173 0 .347-.038.52-.114l24.763-12.033.712 3.127-9.287 18.46-53.449 28.51-11.575-19.699 7.826-4.348c.269-.153.48-.42.557-.725a1.217 1.217 0 0 0-.134-.896l-8.845-14.055a1.326 1.326 0 0 0-.423-.382l54.815-45.692 11.228-1.983 8.037 35.394Zm-67.446 26.927-7.787 4.329a1.217 1.217 0 0 0-.558.706c-.077.305-.038.61.116.877l12.132 20.634-23.918 12.758a1.135 1.135 0 0 0-.019-1.106l-16.285-27.137c-.135-.229-.365-.381-.596-.477l28.628-23.857c.019.077.038.172.096.248l8.191 13.025Zm-22.034 39.361c.192.324.519.496.884.534l-122.029 65.067-14.67-12.3 5.152-31.008 101.324-39.094c.115-.038.23-.114.326-.19l12.594-10.489c.019.133.057.248.134.381l16.285 27.099Zm82.866-40.562c.211-.114.384-.286.481-.496l8.959-17.792 28.628 25.344v17.621l-21.014-5.988a1.164 1.164 0 0 0-.577-.019l-22.034 4.996a1.205 1.205 0 0 0-.692.458l-14.977 20.881-45.24 27.271a1.14 1.14 0 0 0-.557.991v29.044l-68.35 61.406-66.735-55.933L780.979 223.9Zm-18.188 152.885 11.613 13.444-15.747 14.322-11.593-12.319 15.727-15.447Zm-17.381 17.068 12.324 13.101c.231.248.539.362.846.362.289 0 .558-.095.788-.305l16.535-15.027 12.209 14.112-34.319 32.762-25.264-28.414 16.881-16.591Zm19.034-18.689 33.243-32.648 18.726 20.081 8.133 8.715-34.742 33.163-25.36-29.311Zm34.877-34.269 33.877-33.277 11.247 28.471-27.128 24.143-17.996-19.337Zm24.687-80.056 30.281-8.162 14.785 36.138-34.626 15.141-10.44-43.117Zm20.226-38.865 21.399-7.514 24.571 65.125-18.996 8.314-26.974-65.925Zm23.571-8.277 11.671-4.1 24.937 63.771-12.094 5.301-24.514-64.972Zm13.863-4.882 13.324-4.672 19.803 54.388a5.651 5.651 0 0 0 1.73 2.441c.077.057 1.904 1.583 5.576 4.653l-15.535 6.789-24.898-63.599Zm42.375 58.469c14.323 11.996 49.527 41.554 109.547 92.319 2.54 2.136 5.06 4.214 7.58 6.274l-.98 35.28-125.588-113.162-7.094-13.483 16.535-7.228Zm95.997-100.785-84-27.003a1.157 1.157 0 0 0-1.211.324l-22.303 24.581c-.25.267-.346.649-.269 1.011l11.709 53.339c.077.324.288.61.596.782l26.455 13.616-19.418 25.382c-3.077-2.574-5.211-4.367-6.422-5.377L883.994 140.03a12.027 12.027 0 0 0-.327-.744l-12.324-23.037 47.662-32.877h40.703c.634 0 1.153-.515 1.153-1.144V28.355l41.299-9.459 15.52 42.66c.05.153.13.267.23.381l23.13 24.906 3.05 49.887c.02.344.19.649.46.859l9.37 6.922 3.42 21.988h-37.3Zm-146.832-22.16 20.976 57.63-13.362 4.692-49.181-125.768 8.844-2.727a350.851 350.851 0 0 0 17.092 36.92l15.631 29.253Zm5.441 63.103-11.651 4.1-47.835-126.778L829.43 81.6l49.219 125.843Zm-13.824 4.863-21.418 7.533-46.874-128.113 20.419-6.293 47.873 126.873ZM795.706 89.57l-27.782-71.551c7.306-4.52 13.997-7.647 20.053-9.344l28.148 74.62-20.419 6.275Zm-2.211.687-26.513 8.161-29.397-58.068 25.706-19.337c.884-.61 1.768-1.163 2.634-1.736l27.57 70.98ZM575.891 251.113l6.806 27.27-16.708 6.446a1.174 1.174 0 0 0-.73.877l-4.941 29.883-22.995-26.717-6.96-23.437 1.653-20.425 43.875 6.103Zm-53.334 146.745 14.074 5.454 3.23 23.589-17.304-2.46v-26.583Zm109.686 30.626-15.15 14.245-28.916-30.207 12.035-11.461 32.031 27.423Zm-59.947 59.48 10.882 12.586c.192.229.48.382.788.401l8.786.705h.097c.596 0 1.095-.458 1.153-1.049.058-.629-.423-1.182-1.057-1.239l-8.306-.668-10.652-12.3 27.763-26.088 14.459 15.027c.23.229.538.363.846.363.288 0 .576-.115.807-.324a1.139 1.139 0 0 0 .039-1.621l-14.459-15.028 30.57-28.719 17.535 15.008 8.171 25.706-74.483 62.589-28.224-30.97 15.285-14.379Zm54.506 13.425 22.707 24.372-11.786 8.658-5.672-6.751a1.124 1.124 0 0 0-.884-.42c-.385.019-.673.153-.885.401l-17.438 20.195-15.535-21.664 29.493-24.791Zm1.769-1.487 31.897-26.813 11.497 36.195-20.572 15.104-22.822-24.486Zm33.82-28.415 26.686-22.426 24.456 28.243-6.614 6.312-32.993 24.219-11.535-36.348Zm164.597-100.919-8.075-8.658 26.455-23.532 12.478 31.58-15.169 17.43-15.689-16.82Zm19.957-34.498c0-.019-.019-.038-.019-.057l-11.805-29.826 34.761-15.198 23.072 68.938-33.07 8.887-12.939-32.744Zm25.052-46.016 19.111-8.353 34.338 69.492-30.243 8.124-23.206-69.263Zm21.226-9.287 12.132-5.302 7.248 13.788c.058.115.154.229.25.324l98.647 88.886-15.416 19.757-42.644-33.468c-.5-.401-1.231-.305-1.634.191-.404.495-.308 1.22.192 1.62l85.672 67.223-28.8 5.396-73.714-68.938-6.98-18.708c0-.019-.019-.038-.038-.057 0-.019 0-.038-.019-.057l-34.896-70.655Zm146.007 155.059-1.62 58.221c-3.02 3.7-6.07 7.457-9.13 11.252l-13.86-10.718-4.83-53.244 29.44-5.511Zm-41.281-36.195 15.321-19.623 26.84 24.181-.77 27.918-41.391-32.476Zm44.411 6.598 38.76 34.918c-12.71 15.218-26.55 32.057-41.12 49.944l2.36-84.862Zm.08-3.032.98-35.508c22.15 17.735 43.66 31.675 63.74 42.659-7.54 8.754-15.77 18.479-24.58 29.025l-40.14-36.176Zm61.14-29.883c-14.13-10.736-33.46-27.632-46.51-39.284.1-.038.21-.076.29-.153l7.88-6.274 27.44 6.389 16.17 27.918-5.27 11.404Zm7.27-10.183 33.83 6.255c-4.26 4.005-9.86 9.821-16.55 17.182-9.4-4.043-17.44-8.105-22.65-11.843l5.37-11.594Zm-7.52 12.891c5.23 3.929 13.48 8.162 23.15 12.358-3.54 3.928-7.39 8.238-11.48 12.929-22.34-11.976-46.62-27.728-71.45-48.419l-.4-28.3c8.21 7.457 40.01 36.271 60.18 51.432Zm14.32 39.876c36.17 18.422 66.83 27.137 86.62 31.218-1.04 3.737-2.12 7.628-3.21 11.537l-96.75-27.08c4.63-5.492 9.09-10.736 13.34-15.675Zm-14.99 17.602 27.84 7.799-3.43 11.766-32.93-9.439c2.9-3.433 5.75-6.827 8.52-10.126Zm30.09 8.429 67.67 18.936c-1.15 4.119-2.29 8.238-3.4 12.224l-67.72-19.394 3.45-11.766Zm70.21 18.459c.02 0 .02 0 0 0 1.21-4.348 2.4-8.677 3.56-12.815.59.115 1.17.229 1.73.344 16.78 3.909 28.24 7.017 36.12 10.088l-53.23 44.872c2.09-7.476 6.99-25.116 11.82-42.489Zm4.4-24.505c-3.53-.801-7.26-1.64-11.19-2.517-17.76-4.481-42.35-12.472-70.63-26.565 4.42-5.053 8.51-9.668 12.2-13.749 30.31 11.957 67.62 22.731 74.64 24.734-.69 2.517-2.58 9.306-5.02 18.097Zm-55.89-72.047c-1.19.725-2.77 1.946-4.65 3.605l-35.92-6.637-16.45-28.395a1.225 1.225 0 0 0-.73-.553l-28.48-6.637c-.34-.076-.71 0-1 .229l-8.32 6.637c-.2.152-.31.362-.37.591-6.5-5.817-11.17-10.088-12.44-11.252l-1.5-106.563 8.19-46.055h8.85l99.49 1.297a83657.69 83657.69 0 0 0 19.54 85.568c4.5 19.699 7.48 32.705 7.86 34.421 1.46 6.618 13.07 39.78 17.79 53.072-22.06 7.457-42.55 15.142-51.86 20.672Zm-22.45-344.711c5.38.076 10.88.152 16.45.229 11.27.133 20.19.248 23.52.477.21.019.42.019.67.019 13.34 0 89.88-20.482 111.76-26.412l23.82 102.902c.02.114.08.21.1.305.02.076.02.133.04.21l34.88 104.409-161.18 39.608c-16.32-71.436-46.87-205.156-50.06-221.747Zm103.74-17.62c-28.78 7.341-57.64 14.168-63.45 13.73-3.46-.248-12.44-.363-23.78-.496-4.96-.057-10.73-.134-16.86-.229-.44-14.531-2.67-74.85-3.37-93.482l70.58-18.06 19.56 7.057 17.34 52.71v38.77h-.02Zm-75.12 166.291-97.95-1.278-3.56-22.808a1.073 1.073 0 0 0-.46-.744l-9.31-6.884-3.06-49.754a1.087 1.087 0 0 0-.3-.706l-23.27-25.039-15.78-43.346c-.25-.8-8.212-27.137-18.152-60.471l1.077-.267c14.845 12.376 63.985 53.167 72.545 57.801 5.8 3.147 32.49 4.215 64.87 4.787 1.59 8.581 11.57 53.167 33.35 148.709ZM1054.88-72.812c7.52-14.17 14.98-38.712 18.49-51.184l41.4 35.852-59.89 15.332Zm-74.581 19.09-8.998 2.307-69.734 7.97a9095.982 9095.982 0 0 0-3.365-49.81l67.024-11.747c4.902 16.877 10.151 34.65 15.073 51.28ZM943.827-252.93l-.443-2.632 46.432 1.144 35.834 19.128-13.76 24.657-11.11-3.413 3.19-9.554c.19-.611-.14-1.259-.73-1.45-.62-.21-1.27.134-1.46.725l-3.216 9.611-55.737-17.125c.154-12.319.98-20.615 1-20.805a.725.725 0 0 0 0-.286Zm70.333 43.003 13.55-24.276 7.29 3.89v26.774l-5.35-1.64c-.02 0-.04-.019-.05-.019l-15.44-4.729Zm15.11 30.951h-15.32v-28.606l14.17 4.348 1.15 24.258Zm-55.181-40.849v8.83h-30.82c-.384-6.637-.5-12.892-.481-18.441l31.301 9.611Zm73.141 40.849v-18.384l15.47 4.748 1.5 13.636h-16.97Zm-2.27-19.09c-.02.096-.06.172-.06.267v18.823h-13.3l-1.14-23.533 14.5 4.443Zm-9.96-34.86-43.78-23.361-1.615-15.103 43.225-6.312 2.17 8.543v36.233Zm-45.645-40.772-1.654-15.504 39.879-9.211 4.69 18.441-42.915 6.274Zm-.519 16.954-45.817-1.145-3.345-20.233 45.739-10.565 3.423 31.943Zm-48.182-1.202-54.007-1.335-.346-13.578 51.085-4.767 3.268 19.68ZM973.051-40.05a5.76 5.76 0 0 0 .788-.152l9.767-2.498a14204.91 14204.91 0 0 0 17.824 59.403l-42.011 9.63a1.165 1.165 0 0 0-.903 1.126v53.625h-39.914c-.231 0-.462.076-.654.21l-47.72 32.934-2.403-4.501c-12.613-23.57-22.418-48.552-29.148-74.22-6.652-29.045-7.075-47.123-1.269-55.247 2.538-3.566 6.595-5.55 12.786-6.255L973.051-40.05ZM839.658 76.03l-21.303 6.56-28.109-74.507c6.229-1.41 11.747-1.24 16.496.534 11.825 4.405 17.785 18.575 20.688 29.673a349.756 349.756 0 0 0 12.228 37.74Zm-17.65-71.303c-3.384-3.051-7.114-5.378-11.19-6.884-4.306-1.602-8.94-2.308-13.9-2.136l24.494-18.422 4.634-.534c-3.461 6.656-4.807 15.752-4.038 27.976ZM720.666 38.634l-21.342-22.865C718.397 2.82 733.374-7.535 733.932-8.49c.884-1.487 3.845-10.469 5.787-16.495 16.958.934 39.664 1.182 58.429 1.182h5.518l-83 62.436Zm11.343-48.4c-1.057 1.125-15.323 10.946-34.3 23.818l-37.164-39.799-2.48-13.788c23.263 5.454 52.238 11.767 68.215 13.54 3.172.343 6.921.649 11.036.896-2.23 6.904-4.711 14.303-5.307 15.333Zm-73.675-15.237c.038.21.134.42.288.572l8.056 8.62-23.187 9.115-16.439-40.333c5.653 1.41 16.17 4.004 28.552 6.922l2.73 15.104ZM641.338-5.857l-47.047 18.48-2.346-3.7 10.863-45.216 21.61-11.099 16.92 41.535ZM668.351-14l27.417 29.368c-20.38 13.807-45.682 30.798-65.986 44.376l-16.688-13.578.077-1.735a5.664 5.664 0 0 0-.885-3.337l-16.765-26.489L668.351-14Zm-55.392 63.027 16.035 13.044 29.474 23.342-49.181 36.996 3.672-73.382Zm68.369 33.64-3.153 41.973c-3.787 4.672-53.411 65.658-66.177 76.566-8.287 7.075-46.951.992-76.675-5.454a1.29 1.29 0 0 0-.48-.152c-.058 0-.097.019-.154.019a533.556 533.556 0 0 1-6.172-1.373c4.23-1.354 6.633-2.136 6.864-2.193a5.532 5.532 0 0 0 1.73-.897l144.217-108.49ZM533.497 197.679l-1.961 24.18-63.14 7.323-4.172-13.864a6653.33 6653.33 0 0 1 60.063-19.699c2.653.591 5.749 1.297 9.21 2.06Zm-67.024 33.086c.154.496.596.82 1.116.82h.134l63.639-7.38-3.249 40.333-63.774 8.2-26.898-48.438a5079.391 5079.391 0 0 1 24.61-8.238l4.422 14.703Zm11.306 70.922 1.153 19.356-55.795 22.198-48.412-97.487a6329.226 6329.226 0 0 1 60.486-20.729l42.568 76.662Zm-89.423-23.247-38.568 13.121-11.074-33.106a5322.734 5322.734 0 0 1 33.8-11.919l15.842 31.904Zm-40.394 14.951 4.153 12.396-58.968 19.718-13.67-45.405c18.612-6.98 37.857-13.998 57.084-20.863l11.401 34.154Zm-51.931 49.812-73.195 23.074c-3.537-10.717-11.151-30.531-21.014-55.379 22.168-9.478 48.047-19.681 75.444-29.978l18.765 62.283Zm-159.867 46.13a5318.773 5318.773 0 0 0 36.549-16.19l10.69 32.61-35.607 16.362-11.632-32.782Zm16.823 54.312-12.574 4.443-6.941-16.705 13.016-6.103 6.499 18.365Zm-7.287-20.539-14.228 6.675a1.162 1.162 0 0 0-.576 1.487l7.786 18.727c.193.439.616.706 1.077.706.135 0 .269-.019.385-.057l13.612-4.806 9.344 26.317-37.242 13.215-18.976-51.298-10.152-27.461a15822.624 15822.624 0 0 0 37.338-16.324l11.632 32.819Zm2.884 1.202 35.569-16.343 6.844 20.881c-.884.763-1.768 1.507-2.711 2.27-11.285 8.944-17.38 20.748-19.014 38.846l-3.98 1.411-16.708-47.065Zm37.684-17.316 27.186-12.491c-2.442 11.595-9.363 22.636-20.553 32.686l-6.633-20.195Zm-.731-2.212-10.69-32.591c18.688-8.372 27.898-12.72 32.454-15.084 3.365 9.058 5.653 15.733 6.191 18.345a46.975 46.975 0 0 1 .443 16.286l-28.398 13.044Zm20.995-49.735c-5.325 2.689-16.919 8.01-32.396 14.932l-13.42-40.925c9.709-4.328 19.572-8.714 29.551-13.139.307-.133.634-.286.961-.419 5.768 14.646 11.228 28.643 15.304 39.551Zm-21.014-49.62a15032.686 15032.686 0 0 0-49.143 21.892l-6.864-18.822a1.173 1.173 0 0 0-1.384-.725l-10.363 2.727-43.798-102.044 39.895-20.119c3.922 3.109 8.556 6.713 13.901 10.851 9.44 7.342 22.187 17.22 25.186 20.176 1.173 3.528 4.884 12.815 16.612 41.993 5.076 12.643 11.267 28.033 17.381 43.403-.462.248-.942.477-1.423.668Zm-26.936 24.6 13.42 40.925c-10.709 4.786-23.149 10.278-36.607 16.209l-14.305-40.333a10517.935 10517.935 0 0 1 37.492-16.801Zm-25.322 58.05a13444.276 13444.276 0 0 1-37.356 16.343l-14.67-39.628c11.92-5.397 24.552-11.099 37.722-17.03l14.304 40.315Zm-28.974 45.653-19.091 6.637-9.748-24.505c4.23-1.85 8.478-3.681 12.728-5.531 2.172-.953 4.306-1.868 6.402-2.784l9.709 26.183Zm-20.841 8.506a1.14 1.14 0 0 0 1.077.724c.134 0 .25-.019.384-.057l20.169-6.999 6.46 17.431-18.823 8.009a1.144 1.144 0 0 0-.615 1.506c.192.439.615.706 1.057.706.154 0 .308-.038.462-.095l18.707-7.972 11.344 30.646-45.086 16c-.02-.095-.02-.191-.058-.286l-29.109-74.698c7.787-3.375 15.804-6.846 23.899-10.374l10.132 25.459Zm146.947 69.033-9.094-31.637 10.133-5.073 9.574 30.951-10.613 5.759Zm25.437-13.787-12.747 6.922-9.46-30.607c-.038-.096-.096-.172-.134-.248l10.632-5.321 11.709 29.254Zm-36.165-19.585c-2.326-.019-18.073.076-39.241 6.312-.615-23.266 4.345-35.585 15.093-44.109 25.859-20.52 31.435-41.974 30.435-58.488l12.728 2.231 21.476 73.744-40.491 20.31Zm59.486-29.425c-.019 0-.038.019-.057.038h-.039l-16.784 8.047-10.902-37.453 41.952-11.538 11.152 31.371-25.322 9.535Zm19.727 16.572a1.112 1.112 0 0 0-.327-1.335l-16.727-13.769 34.434-12.987 18.035 79.504-27.282 6.636-27.456-13.883 19.323-44.166Zm-38.261 87.436 18.015-41.172 26.687 13.501-18.919 37.854-25.783-10.183Zm45.605 41.573-2.749-24.009a1.123 1.123 0 0 0-.731-.935l-14.189-5.606 19.111-38.236 27.129-6.598 15.785 69.625-44.356 5.759Zm190.226-46.894c-.096.02-.173.039-.269.077l-40.894 16.572c0-.134-.02-.267-.077-.401l-7.518-19.184a1.166 1.166 0 0 0-1.25-.725l-32.396 4.882-8.229-56.2 10.055-7.323c.404-.286.558-.801.423-1.258l-7.075-23.17a1.148 1.148 0 0 0-1.442-.763c-.615.19-.961.82-.769 1.43l6.845 22.388-9.96 7.247a1.14 1.14 0 0 0-.461 1.087l8.498 58.03c.039.305.212.572.461.763.25.191.558.248.866.21l32.627-4.92 7.191 18.326c.057.153.173.248.288.343l-94.671 38.37-37.991-167.493 78.347-8.887c.116-.019.212-.038.327-.076l15.381-6.427 17.381 27.194-8.556 8.486a1.13 1.13 0 0 0-.115 1.488l14.17 19.604c.23.305.577.477.942.477.173 0 .346-.039.5-.115l41.51-20.176 21.668.725 3.287 5.263 10.037 15.733-18.919 13.788-8.864-11.404c-.384-.496-1.115-.592-1.634-.21a1.163 1.163 0 0 0-.211 1.621l8.825 11.346-10.21 7.438c-.288.21-.48.553-.48.934v17.812c0 .286.096.553.288.763l21.88 24.829-9.806 1.506Zm12.555-1.887-22.552-25.612v-16.8l31.146-22.713 12.594-1.564 24.36 24.467 28.282 31.027-73.83 11.195Zm132.412 52.919-14.535 16.686-31.089-35.203-24.59-21.263-8.633-18.918 22.726-3.432c.019 0 .038-.019.077-.038.173-.039.326-.096.461-.21.019-.019.038 0 .038-.019l.02-.019 9.613-8.067 16.265 22.674 29.647 47.809Zm-10.113-20.729-17.13-27.633 16.957-19.642 5.499 6.541s.019 0 .019.019v.019l17.496 19.681-22.841 21.015Zm24.552-22.579-16.63-18.708 11.862-8.715 15.958 17.125-11.19 10.298Zm12.382-12.377-15.285-16.419 19.727-14.493 3.249 10.24-7.691 20.672Zm38.299 8.467-7.363 8.773-29.071-15.638 7.941-21.282 29.128-7.533 5.556 6.866-6.191 28.814Zm69.177 73.325-40.164-41.21-5.576-16.839a1.137 1.137 0 0 0-.788-.744l-16.439-4.539-3.903-9.554 6.307-29.292a1.132 1.132 0 0 0-.231-.953l-6.364-7.857a1.145 1.145 0 0 0-1.192-.4l-29.378 7.589-3.288-10.336 33.762-24.791 17.342-16.572 100.477 107.746-50.565 47.752Zm52.219-49.353-28.167-30.188 31.589-26.527 23.399 31.37-26.821 25.345Zm28.455-27.061-22.995-30.798 41.183-15.924 11.344 12.739-16.766 19.299h-.019l-12.747 14.684Zm64.12 52.348-8.844-21.416a1.16 1.16 0 0 0-.519-.572l-53.027-28.853 12.074-13.883 61.833 49.639-11.517 15.085Zm12.92-16.897-61.717-49.544 15.92-18.307 61.255 47.656-15.458 20.195Zm16.842-22.045-60.197-46.836 36.126-8.639 44.028 29.368-19.957 26.107Zm20.361 15.829L952.094 562.7l20.034-26.241 20.265 13.521c-7.21 8.963-14.478 18.04-21.765 27.137Zm23.226-28.949-66.793-44.548a1.295 1.295 0 0 0-.923-.171l-38.26 9.134-10.767-12.109 52.142-11.385c.308-.076.577-.267.75-.534a1.13 1.13 0 0 0 .134-.896l-12.881-47.485a1.185 1.185 0 0 0-1.423-.82l-51.411 13.692-5.922-18.536 36.857-11.556h.038l.077-.019 15.612-6.446c.5-.21.788-.725.692-1.24l-4.46-28.3c0-.019-.019-.038-.019-.038v-.057l-2.231-8.848a1.167 1.167 0 0 0-1.403-.84c-.616.153-1 .782-.846 1.393l1.942 7.723-57.18 14.093-3.537-11.042 15.823-18.174 66.562-17.887 6.71 17.983a.975.975 0 0 0 .288.438l74.025 69.225 4.92 54.35c.04.324.19.61.44.801l14.23 10.984c-10.83 13.349-21.92 27.118-33.186 41.115Zm77.286-13.654-16.18 28.586-1.85 3.337-42.2-21.015a9170.357 9170.357 0 0 1 33.82-41.744l31.32 2.402-4.91 28.434Zm-24.64-33.029c15.7-19.261 31.47-38.465 46.04-55.914l35.03 10.031 68.85 19.718-8.4 30.188-7.46 6.293-134.06-10.316Zm132.95 49.277-13.75-21.588 24.13-22.178 56.99-48.019c5.13 2.212 8.49 4.463 10.76 7.037 6.54 7.457 40.38 44.281 53.51 58.545l-76.46 76.357-55.18-50.154Zm78.52 71.417-21.65-19.699 15.24-15.218 22.11 18.097-15.7 16.82Zm17.28-18.498-22.05-18.059 14.69-14.665 26.61 12.148-19.25 20.576Zm-5.63-34.44 43.01-42.946c1.48 1.602 2.59 2.822 3.17 3.451 1.25 2.117 5.36 9.097 11.09 18.727l-18.3 38.56-38.97-17.792Zm62.83-34.098c-2.48-4.195-4.83-8.143-6.94-11.747-.21-.343-.44-.686-.73-.973-.08-.095-1.56-1.697-3.96-4.309l.32-.325 15.62 6.294-4.31 11.06Zm6.46-10.202 16.07 6.465c-.02.038-.05.076-.07.114l-9.69 25.077c-3.95-6.598-7.75-12.987-11.27-18.936l4.96-12.72Zm10.36 80.647-38.57-17.601 17.64-37.13a6329.7 6329.7 0 0 0 25.49 42.507c-1.48 3.967-3.02 8.067-4.56 12.224Zm9.73-26.049c-4.11-6.828-8.25-13.712-12.26-20.425l10.36-26.774c.02-.038 0-.057.02-.095l17.34 6.979c-3.92 9.821-9.27 23.838-15.46 40.315Zm48.34 37.434-33.59-13.158c-2.31-3.757-4.69-7.666-7.12-11.633 3.37-9.039 6.52-17.43 9.37-24.944l43.99 19.109-12.65 30.626Zm13.53-32.781-44.06-19.128c3.24-8.562 6.03-15.866 8.26-21.53l45.09 18.155-9.29 22.503Zm18.48-44.682-8.29 20.043-22.36-9.001c.12-.095.25-.191.31-.343l9.71-20.272 20.63 9.573Zm-22.23-11.594-10.19 21.32c-.09.191-.11.381-.09.572l-20.9-8.41c2.17-5.511 3.69-9.115 4.34-10.298 1.48-2.135 5.14-9.516 9.92-19.699l20.29 9.478-3.37 7.037Zm13.46-26.775c-.4.038-.77.248-.94.63l-8.15 17.029-20.31-9.497c2.41-5.13 5.06-10.87 7.83-16.972l21.57 8.81Zm-49.74 23.304c-.71.934-2.67 5.473-5.55 12.662l-52.38-21.091 65.78-65.678c10.96-.724 20.26.039 26.18.82-14.67 32.858-31.3 69.397-34.03 73.287Zm57.59-127.045c-.52 1.354-.97 2.498-1.33 3.356-2.67 6.293-9.4 21.645-17.34 39.494-6.23-1.029-18.02-2.402-32.44-1.354 26.28-9.992 40.74-25.153 51.11-41.496Zm-65.45 54.979c4.19-.839 8.25-1.392 12.15-1.754l-64.56 64.456-4.04-1.62c-14.67-15.962-44.3-48.229-50.22-54.98-1.75-2.002-3.82-3.795-6.34-5.473 38.81 2.193 92.24 3.49 113.01-.629Zm-36.26-123.136-53.01 71.609a1.1 1.1 0 0 0-.17.343l-12.42 40.886c-20.11-.972-37.94-2.269-47.78-3.452-2.67-.324-7.36-.991-13.71-2.25 2.96-10.66 5.12-18.441 5.29-19.127.25-1.011 1.48-14.188 1.15-29.578l59.87-55.227c5.66-1.678 9.1-2.67 9.27-2.708a5.84 5.84 0 0 0 2.88-1.888l20.52-25.001 28.11 26.393Zm-56.47-10.05c-8.13 2.365-41.24 12.053-72.52 22.503-4.65-13.139-16.25-46.264-17.63-52.576-.39-1.736-3.37-14.761-7.87-34.46-.67-2.918-1.38-6.026-2.11-9.268l161.62-39.723 9.17 27.461-70.66 86.063Zm152.29-244.574-74 144.761-40.13-120.065 114.13-24.696ZM1327.78-69.398c11.32 10.526 76.92 89.896 89.02 104.542l-9.41 33.163-92.15 19.947-43.43-187.688c18.65 8.43 47.85 22.484 55.97 30.035Zm-47.41 58.354c-11.75 3.185-28.4 7.628-45.3 11.957v-38.37c0-.114-.02-.247-.06-.361l-16.82-51.166 48.16 17.373 14.02 60.567ZM1082.7-321.353l74.81 5.664 11.59 32.553-43.81 2.975c-.08 0-.18.019-.25.038l-42.34 12.472v-53.702Zm0 56.123 42.87-12.624 44.34-3.013 3.86 10.832-91.07 44.166v-39.361Zm0 41.917 91.84-44.548 4.14 11.594c.02.058.05.115.07.172 1.79 4.806 11.39 23.266 23.52 46.016l-96.54 47.733c-.57.286-.81.972-.52 1.544.21.401.62.63 1.04.63.17 0 .35-.038.52-.115l96.57-47.751c19.02 35.585 43.76 80.743 54.72 100.709l5.19 22.407-65.12-23.494c-1.09-.4-2.3-.458-3.42-.172l-74.5 19.07-45.87-39.723-4.16-37.663 25.25-12.453c.52-.248.77-.839.57-1.392l-13.32-40.085v-2.479h.02Zm-2.31-98.212v97.029c-.17.324-.21.706-.04 1.049.02.019.04.038.04.057v2.727c0 .115.02.248.06.363l13.05 39.303-23.57 11.633-14.4-130.821c.08.038.14.076.21.095l14.98 3.318v13.254l-11.88-1.258c-.64-.058-1.21.381-1.27 1.029-.08.63.38 1.202 1.04 1.259l13.17 1.411h.11c.29 0 .56-.095.77-.286.25-.21.39-.534.39-.858v-15.447a1.17 1.17 0 0 0-.91-1.125l-15.88-3.509c-.34-.076-.67.019-.92.191l-2.37-21.473 27.42 2.059Zm-25.51 57.993-17.57-3.509v-2.289c0-.095-.02-.19-.04-.286l-7.46-29.329 20.65-4.768 4.42 40.181Zm-6.6-59.9 1.93 17.45-20.96 4.843-4.69-18.44 23.72-3.853Zm-26.01 4.215 4.73 18.574-39.549 9.135-2.326-21.683 37.145-6.026Zm-39.452 6.408 2.345 21.835-45.874 10.603-4.095-24.715 47.624-7.723Zm-49.912 8.085 4.115 24.849-50.777 4.729c-.174-7.418-.327-14.798-.481-21.931l47.143-7.647ZM884.09-203.328h-37.472l-2.576-18.117 39.145-1.315c.269 7.227.576 13.806.903 19.432Zm-2.73-82.707-3.653-10.527h3.422c.077 3.452.154 6.98.231 10.527Zm-.807-41.497c.134 8.525.326 18.308.519 28.682h-4.173l-9.747-28.148 13.401-.534Zm-54.892 2.174 39.087-1.544 9.71 28.052h-50.22l1.423-26.508Zm-51.546 52.481c8.556-5.873 30.166-21.606 32.993-23.666h15.919l52.238-.019 6.268 18.098c.423 18.46.942 37.358 1.557 53.396l-40.413 1.354a1.138 1.138 0 0 0-.846.42 1.166 1.166 0 0 0-.27.896l2.904 20.367c.076.572.576.991 1.153.991h38.626c.423 6.961.884 12.224 1.384 15.047 3.077 17.525 9.729 118.063 11.363 143.064l-64.62 7.38c-2.403.038-20.207.286-41.125.229v-49.716a.984.984 0 0 0-.077-.4l-62.717-169.419c6.422-2.06 37.223-12.224 45.663-18.022Zm-182.516 81.334c5.402-5.358 17.323-27.442 19.111-30.779l91.614-33.468 23.783 1.354L788.9-84.807v49.506c-22.302-.096-47.547-.591-61.332-2.098-24.956-2.746-85.211-17.64-99.093-21.11l-30.07-79.141a5.768 5.768 0 0 0-1.327-2.041l-33.723-33.468c9.248-5.397 24.283-14.455 28.244-18.384Zm-314.179-32.59 3.249-73.954 51.566 13.463c.096.019.192.038.288.038a1.144 1.144 0 0 0 1.134-.915l5.345-25.916 45.663 11.69-2.596 13.787c-7.536 11.347-13.343 20.176-15.554 23.666l-66.542 43.862-22.553-5.721Zm82.443-19.948c-4.095 12.32-10.805 32.419-17.938 52.634l-39.664-14.665 57.602-37.969Zm-60.006 39.533 41.279 15.256c-10.055 28.338-20.764 56.333-26.147 62.645-1.385 1.64-3.154 3.318-5.153 5.015l-41.106-25.744-3.384-17.526-2.884-15.027 37.395-24.619Zm8.114 84.48c-15.535 12.243-43.413 24.83-52.008 27.442-1.115.343-4.172 1.888-8.767 4.367-8.844.076-20.707 1.087-31.243 2.098 10.921-8.048 24.091-29.139 25.302-31.103l26.629-27.919 40.087 25.115Zm-41.587-27.289-26.84 11.003-4.153-6.77 28.052-19.566 2.941 15.333Zm-36.626-68.252-14.016-2.041-10.882-37.549 10.151-3.356 14.747 42.946Zm-31.339-91.022 7.46 13.006c-1.269 1.545-1.654 3.604-1 5.473l9.402 27.423-10.056 3.318-2.653-9.192c-.135-.438-.519-.781-.981-.82l-11.535-1.315-13.267-18.804 22.63-19.089Zm-24.437 20.577 13.439 19.051c.193.267.481.439.827.477l11.286 1.277 14.17 48.934c.134.439.5.763.942.82l15.939 2.327 11.362 33.087c-4.383 2.955-12.651 8.352-23.417 14.607l-22.034-3.585c.039-.172.058-.343.019-.534l-17.284-79.351c-.058-.305-.269-.572-.539-.743a1.154 1.154 0 0 0-.903-.134l-27.302 7.418-7.267-17.754 30.762-25.897Zm11.151 75.079 9.056 41.535-41.318-6.713-6.094-26.26 38.356-8.562Zm-38.875 6.331-7.46-32.171 38.433-10.45 7.422 34.04-38.395 8.581Zm6.748 30.837 62.37 10.145c-17.361 9.878-40.413 21.378-64.12 28.681l1.75-38.826Zm-32.223-118.464 12.055 3.013 1.672 32.896-32.435 3.49-6.883-29.94 25.591-9.459Zm-27.879 9.821 6.864 29.845-50.335 5.397 1.712-38.961 41.76 3.719Zm-46.99-41.401 12.017 2.498-8.767 32.705-9.882-.877 6.633-34.326Zm-30.627 47.446 22.822-10.927 10.71.954-1.693 38.979-34.357-8.887 2.518-20.119ZM2.233-224.267l2.999-31.58 21.687 5.607-3.672 30.092-21.014-4.119ZM41.3-174.666l3.518-39.208 30.84-1.563 6.286 40.161-40.644.61Zm36.491-42.145c-.096-.591-.615-.991-1.211-.972l-32.742 1.659-18.304-3.585 3.653-29.959 18.746 4.843a.63.63 0 0 0 .192.02c.02 0 .038.019.038.019h.174l87.519-9.402c.019 0 .039-.019.058-.019a.992.992 0 0 0 .48-.21c.02-.019.058-.019.077-.038l4.884-4.119 6.864 16.801-11.152 3.032a1.164 1.164 0 0 0-.826 1.373l14.169 61.101-66.158.972-6.46-41.516Zm37.511 88.944c-7.537.495-15.477.343-23.63-.248l-7.036-44.891 66.043-.992-1.788 39.761c-11.248 3.318-22.63 5.645-33.589 6.37Zm32.473 5.911c51.873-14.054 101.189-48.857 104.381-51.127l8.248-5.435 2.576 13.368-29.782 20.787a1.16 1.16 0 0 0-.326 1.545l5.248 8.524c.289.477.904.686 1.442.458l23.61-9.688-23.648 24.791a.735.735 0 0 0-.154.191c-.192.305-18.361 29.711-29.147 32.953-.154.019-.308.038-.442.038-.558.057-1.116.115-1.673.153v-21.225c0-.534-.365-.992-.885-1.126l-59.448-14.207Zm34.723 10.66 23.284 5.569v20.538c-4.461.42-8.21.763-10.46.878-3.134.133-9.555-.897-16.88-2.384l4.056-24.601ZM36.34 9.514l2.692-12.377a.996.996 0 0 0-.058-.667L24.42-39.191l.961-23.838 83.673-32.305 32.589 2.27c2.923.781 43.644 11.499 53.776 11.06 2.942-.133 8.325-.648 14.555-1.258 9.709-.935 22.591-2.194 32.819-2.575C205.167-64.993 98.999-1.719 45.876 30.053L36.34 9.512ZM50.78 40.56C137.701-11.425 251.156-78.61 259.365-81.623c10.248-3.127 50.374-20.958 64.486-37.587 9.575-11.289 29.301-68.118 47.316-122.22 2.288-6.846 4.268-12.815 4.807-14.207 1.23-2.041 8.555-13.14 18.707-28.415l87.788 7.8 33.012 71.398c.288.63.692 1.183 1.172 1.679l71.311 70.731 28.878 76.013-21.764 11.175a5.802 5.802 0 0 0-2.98 3.776L580.063 8.636a5.673 5.673 0 0 0 .731 4.387l20.687 32.686-4.287 85.815-66.351 49.907c-15.785 5.053-221.392 70.998-333.309 118.807a14837.185 14837.185 0 0 0-17.246-43.042c-7.748-19.261-15.073-37.492-16.342-41.191-.173-3.089-2.307-5.016-29.07-25.783-10.94-8.505-24.572-19.07-26.898-21.702-3.019-3.432-10.363-22.293-15.689-38.579-.077-.209-.154-.419-.25-.629L50.78 40.56ZM10.095 195.848l22.572-11.461a1.26 1.26 0 0 0 .538-.553l14.17-31.809a.788.788 0 0 0 .077-.286l2.73-18.079 26.59-9.859 4.653 9.974c2.173 6.598 11.901 35.47 17.88 42.259 1.712 1.945 5.999 5.53 12.594 10.775l-39.914 20.118a1.13 1.13 0 0 0-.538 1.469l33.05 77.024-48.547 18.67-45.855-108.242Zm46.72 110.378 48.566-18.689 10.171 23.723-48.681 18.727-10.056-23.761Zm10.96 25.859 49.68-19.109 10.248-2.708 6.556 17.984a17195.348 17195.348 0 0 0-57.198 25.763l-9.287-21.93Zm-34.204 54.388a13831.627 13831.627 0 0 1 45.547-20.71l14.65 39.608a16262.22 16262.22 0 0 1-45.2 19.642l-14.997-38.54Zm-31.09 60.986c12.92-5.569 28.321-12.224 44.817-19.375l29.07 74.621c.039.076.097.114.154.172L27.15 520.402 2.482 447.459Zm25.399 75.117 35.703-12.662c.02.076.02.152.038.228l7.383 18.842-35.934 14.817-7.19-21.225Z" fill="#6775FF"/><path d="m488 432 29.154 46.942a1 1 0 0 0 .996.462l12.333-1.827a.998.998 0 0 1 .875.304l52.994 56.428a1 1 0 0 0 1.373.081l103.015-86.75a1 1 0 0 1 1.405.116l24.667 28.937a1 1 0 0 0 1.453.073l109.498-105.059a1 1 0 0 1 1.428.045l15.525 16.895a1 1 0 0 0 1.513-.047l14.07-17.352a.999.999 0 0 1 .509-.333l67.028-18.592a1 1 0 0 0 .63-1.406l-34.505-69.981a1 1 0 0 1 .493-1.357l37.307-16.473c.157-.07.293-.178.396-.315l21.64-28.854a1 1 0 0 0-.333-1.484l-25.062-13.241a1 1 0 0 1-.506-.654l-12.279-52.062a.998.998 0 0 1 .215-.882L934.57 141.5a1.001 1.001 0 0 1 1.059-.302l83.231 26.257c.09.03.19.046.29.047l140.06 1.49c.47.005.86.324.97.774l17.09 73.737a1 1 0 0 0 1.22.743L1283 217.5" stroke="#fff" stroke-width="2" stroke-linecap="round" stroke-linejoin="round" stroke-dasharray="10 10"/><circle cx="1285" cy="217" r="4" fill="#fff"/><circle cx="487" cy="430" r="4" fill="#fff"/><path d="m1296.59 190.175-10.76-9.852a1.247 1.247 0 0 0-.83-.323c-.31 0-.61.115-.83.323l-10.77 9.852c-.18.168-.31.387-.37.63-.05.242-.04.495.05.727.09.232.25.432.45.573.21.14.45.216.7.217h1.72v9.871a.704.704 0 0 0 .2.502.702.702 0 0 0 .5.207h4.81a.702.702 0 0 0 .5-.206.913.913 0 0 0 .15-.23.633.633 0 0 0 .05-.272v-5.987h5.66v5.994c0 .093.02.185.06.271.03.086.08.165.15.23a.715.715 0 0 0 .5.207h4.81a.715.715 0 0 0 .5-.207.704.704 0 0 0 .15-.23.64.64 0 0 0 .06-.271v-9.875h1.72c.25 0 .49-.075.69-.215a1.221 1.221 0 0 0 .51-1.305 1.287 1.287 0 0 0-.37-.631h-.01ZM492.339 386H482.24a3.244 3.244 0 0 0-3.24 3.24v23.52a3.24 3.24 0 0 0 3.24 3.24h10.099a3.244 3.244 0 0 0 3.24-3.24v-23.52a3.24 3.24 0 0 0-3.24-3.24Zm-5.048 28.093a1.298 1.298 0 1 1 0-2.596 1.298 1.298 0 0 1 0 2.596Zm3.006-25.576h-6.011c-.727 0-.727-1.129 0-1.129h6.011c.727 0 .727 1.129 0 1.129Z" fill="#fff"/></svg>