<svg version="1.2" xmlns="http://www.w3.org/2000/svg" viewBox="0 0 72 50" width="72" height="50"><path fill-rule="evenodd" d="M18.9 45q-.2.7-.5 1.6c-.3.8-1 1.6-1.9 1.7q-.4 0-.8.1c-.9.2-1.6.1-2.4.2q-3.3.3-6.6-.1C5 48.3 4 47.8 3.5 46q-.5-1.8-.6-3.5-.1-1.4-.1-2.7-.2-2.2 0-5c.1-1.1 0-2.2.2-3.2.2-1.1.2-2.1.3-3.2l.9-4.2q.1-.8.7-1.5c.2-.4.6-.5.9-.8q.8-.7-.2-.7c-.4.1-.6-.1-.9-.1q-1.1.1-2.2-.1-.8-.1-.8-.8c0-.8-.2-2.9 1.1-2.9h5.5c.4 0 .9-.2 1.1-.6q2.2-4.3 4.8-7.7c2.2-2.8 4.7-4.9 8.1-5.9q2.9-.9 6.5-1.3c.5-.1 1 0 1.5-.1q1.1-.3 2.4-.3c2.2.1 4.4-.2 6.4-.1q2.1.1 4.7.2c.8 0 1.5.2 2.3.2 1 .1 1.9.3 2.8.5q6.1 1.2 9.6 6.2 1.7 2.6 2.2 3.7.3.7.8 1.3c.6.9 1.1 2 1.7 3q.1.2.2.3.1.1.3.2.1.1.3.1.2.1.3.1h5.3c1.5-.1 1.3 1.8 1.3 2.8q0 .2-.1.3-.1.2-.2.3-.1.1-.3.2-.2.1-.4.1-1.8 0-3.3.2h-.1l-.1.1v.1q0 .1.1.1.3.4.8.7c.3.2.8.8.9 1.2.5 1.6.8 3.1 1 4.8q.2.9.2 1.8c0 .8.3 1.5.3 2.4q0 2.4.2 5.1v1.1l.1.1q.1 0 .1.1-.1 3.5-.2 6.9 0 .5-.1 1c-.1.7-.2 1.7-1.1 1.8-.4 0-.7.2-1.1.2q-1.3.1-3 .2-1.8.1-4.6.1c-.8 0-1.4-.2-2.1-.2q-.5-.1-.9-.2c-.3-.2-.7-.2-1-.4-1.1-.7-1.6-1.8-1.9-3q0-.1-.1-.1v-.1h-.1q-.5-.2-.9-.2-3.1.2-6.2.2H24.1q-2.5-.1-5 0-.2 0-.2.2zm41.3-28.6q-.7-.8-1.1-1.7-1.5-2.6-3.3-5.1c-1.2-1.9-3.2-4-5.2-4.6Q48 4.1 45 3.8c-4.5-.4-8.2-.5-12.3-.3q-2.7.2-5.7.8-3.3.7-5.4 1.8-2.6 1.4-4.7 3.8-1.9 2.3-3.1 4.4-.8 1.4-1.7 2.6v.2l.1.1c.4.1.6.1.9 0q.8-.1 2.2-.1c3.7-.1 7.4.1 11.1-.2q2.1-.1 4-.1 3-.1 5.8-.2 6.2-.2 11 0 5.2.2 10.8.2 1-.1 1.9.1.1 0 .1-.1.1 0 .2-.1v-.3zm4.3 15.3v-3.3q0-.2-.1-.4l-.2-.4-.4-.2q-.2-.1-.4-.1h-3.1q-.4 0-.8.1-.4.2-.7.4-.4.3-.5.6-.2.3-.2.7V31q0 .4.2.7.1.3.5.6.3.2.7.4.4.1.8.1h3.1q.2 0 .4-.1l.4-.2.2-.4q.1-.2.1-.4zm-51.3 1.6q1.3 0 2-1 .1-.1.1-.2v-2.2c0-.5-.3-.9-.5-1.3q-.1-.2-.2-.3c-.3-.1-.5-.3-.8-.3-.9.1-1.6-.3-2.5-.1q-.9.1-1.7.1-.1 0-.2.1-.1 0-.2.1-.1 0-.1.1-.1.1-.1.2-.3 1.3-.5 2.6-.1.8.1 1.3 0 .2.1.3.1.2.3.3.1.1.3.2h.3q.7 0 1.3.2h.3c.8-.3 1.3 0 2-.1zm25.6-1.1q-1.7.2-3.3.1-4-.2-7.6-.2c-.8 0-1.6.3-1.8 1.2q-.4 1.9-.4 3.6 0 .8.6 1.1 1.2.6 3.1.4 5.9-.3 11.5 0h2c1.2 0 2.3 0 3.4-.3V38q.1 0 .1-.1h.1v-.2q.2-1.7-.1-3.6c-.2-1.1-.3-2.2-1.8-2.2q-3.5.1-5.8.3z" style="fill:#fcfcfb"/></svg>